<?xml version="1.0" encoding="utf-8"?>
<svg xmlns="http://www.w3.org/2000/svg" viewBox="0 0 48 48" width="480" height="480">
  <path fill="#2196f3" d="M44,24c0,11.046-8.954,20-20,20S4,35.046,4,24S12.954,4,24,4C35.042,4.008,43.992,12.958,44,24" />
  <path fill="#64b5f6" d="M25.633,41.427l-1.394-0.147v-0.954l0.367-0.709l-0.147-0.881l0.477-0.758l0.279-1.857 c0.105-0.702-0.203-1.402-0.791-1.8l0,0c-0.292-0.198-0.521-0.476-0.66-0.8l-0.6-1.389l-0.562-0.367v-0.513l0.2-0.636l0.1-0.636 l0.832-0.734l-1.184-1.115c-0.059-0.055-0.121-0.107-0.186-0.154l-0.909-0.655c-0.03-0.021-0.06-0.042-0.091-0.062l-1.509-0.956 c-0.12-0.076-0.249-0.138-0.384-0.185l-0.907-0.314c-0.108-0.037-0.212-0.084-0.31-0.141l-1.64-0.934 c-0.208-0.118-0.391-0.276-0.539-0.465l-1-1.281c-0.126-0.161-0.225-0.342-0.292-0.535l-0.72-2.049 c-0.063-0.184-0.155-0.356-0.272-0.511l-0.134-0.177c-0.243-0.32-0.374-0.71-0.374-1.112v-0.494c0-0.217,0.038-0.433,0.113-0.637 l0.673-1.829c0.11-0.298,0.141-0.62,0.09-0.934l-0.534-3.288l-0.832-0.171l-1.1,0.685l-0.2-0.685l2.25-1.565V9.071l1.164-0.492 c0.372-0.157,0.784-0.188,1.175-0.088l3.9,1l0.831,0.123l1.272-0.147l0.122,0.709l-1.858,2.1l0.269,0.759l0.611-0.147l1.418,0.807 l0.71-0.269l0.171-2.1l0.831-0.025l1.3,0.57c0.317,0.139,0.588,0.364,0.783,0.65l0.235,0.343c0.1,0.148,0.222,0.28,0.361,0.392 l0.8,0.653c0.187,0.151,0.342,0.337,0.457,0.548l0.828,1.515l-0.366,0.392l-1.3,0.44l-0.782,0.244l-1.383,0.938 c-0.04,0.027-0.079,0.056-0.117,0.086l-0.38,0.3c-0.274,0.219-0.479,0.512-0.593,0.843l-0.06,0.174 c-0.101,0.291-0.273,0.553-0.5,0.761l-1.226,1.125l-0.538,0.269l-3.448,0.563l-0.058,0.311c-0.103,0.546,0.046,1.109,0.406,1.533 l0.612,0.723c0.204,0.241,0.467,0.426,0.763,0.536l1.047,0.391c0.222,0.083,0.426,0.208,0.6,0.368l2.035,1.861l0.391-0.514 l0.508-0.265c0.368-0.193,0.791-0.256,1.2-0.178l1.571,0.3l0.612,0.367l1.687,0.93l3.3,1.911c0.08,0.047,0.156,0.099,0.229,0.156 l0.747,0.6v0.71l-0.88,1.009c-0.106,0.121-0.196,0.255-0.267,0.4L32.2,34.738c-0.123,0.249-0.301,0.467-0.52,0.638l-1.49,1.164 c-0.038,0.029-0.075,0.061-0.11,0.093l-1.659,1.516l-0.562,0.538L27,39.054l-0.441,0.245l-0.53,0.513l-0.277,0.612L25.633,41.427z" />
  <path fill="#64b5f6" d="M24,6.992l0.63,0.611l2.617,2.3l0.44,0.758l1.15,1.052l0.611,0.269l0.294-0.269V10l0.489-0.709 L30.4,8.8l-1.751-1.543c-0.2-0.176-0.421-0.326-0.659-0.447l-0.7-0.353c-0.354-0.18-0.739-0.291-1.134-0.329l0,0 C25.697,6.086,25.234,6.145,24.8,6.3l-0.366,0.131L24,6.992z" />
  <path fill="#64b5f6" d="M32.93,8.337l2.853,5.543l2.087,1.859v0.62l-0.522,0.228l0.522,1.761h0.652l0.326-0.489L38.62,16.13 l0.68-0.33l0.913,1.826L41,17.174C41,17.174,37.3,9.283,32.93,8.337z" />
  <path fill="#64b5f6" d="M39.239,33.772c0,0,2.087-4.729,1.957-7.109l-0.522-0.391l-0.62,0.685l-0.815,0.358l-1.272-1.728 v-4.239l0.587-0.815l-0.326-0.816l0.685-0.75l1.272-0.521L41,19.457l0.2-0.718l0.352,0.131c0.751,2.673,0.907,5.478,0.457,8.217 c-0.358,2.364-1.176,4.636-2.409,6.685h-0.359H39.239z" />
  <path fill="#ffb300" d="M4,6h11c1.105,0,2,0.895,2,2v12l-3-3H4c-1.105,0-2-0.895-2-2V8C2,6.895,2.895,6,4,6z" />
  <path fill="#00c853" d="M44,13H33c-1.105,0-2,0.895-2,2v12l3-3h10c1.105,0,2-0.895,2-2v-7C46,13.895,45.105,13,44,13z" />
  <path fill="#ff5722" d="M14,23h11c1.105,0,2,0.895,2,2v12l-3-3H14c-1.105,0-2-0.895-2-2v-7C12,23.895,12.895,23,14,23z" />
</svg>