<?xml version="1.0" encoding="utf-8"?>
<svg xmlns="http://www.w3.org/2000/svg" viewBox="0 0 100 100" width="400" height="400">
  <path fill="#ead6c7" d="M68,73c-4.325-1.622-7.188-2.659-8.907-3.27c-0.286-0.102-0.54-0.191-0.764-0.27C57.528,69.178,57,68.425,57,67.576v-3.034c4.442-2.889,8-7.543,8-9.542c0-1,0-4,0-4c2,0,2.381-1.898,3-4c0.57-1.935,1-4,1-5c0-1.875-3.257-2.5-3.257-2.5h-0.121c-0.031-1.75-0.325-9.907-2.871-15c0,0-6.25-2-12.75-2s-12.75,2-12.75,2c-2.553,5.107-2.932,13.284-2.989,15.014C33.508,39.611,31,40.277,31,42c0,1,0.43,3.065,1,5c0.619,2.102,1,4,3,4c0,0,0,3,0,4c0,1.999,3.558,6.653,8,9.542v3.034c0,0.849-0.528,1.602-1.329,1.884c-0.224,0.079-0.478,0.169-0.764,0.27C39.188,70.341,36.325,71.378,32,73c-8,3-8,11-8,11h52C76,84,76,76,68,73z" />
  <path fill="#8f9eb6" d="M76,84H24c0,0,0-8,8-11c4.32-1.62,7.19-2.66,8.91-3.27c0.28-0.1,0.54-0.19,0.76-0.27c0.66-0.23,1.14-0.79,1.28-1.45C44.46,68.5,46.8,69,50,69c3.21,0,5.54-0.49,7.05-0.98c0.15,0.66,0.62,1.21,1.28,1.44c0.22,0.08,0.48,0.17,0.76,0.27c1.72,0.61,4.59,1.65,8.91,3.27C76,76,76,84,76,84z" />
  <path fill="#fff" d="M61.473,70.586c-0.959-0.348-1.751-0.632-2.383-0.857c-0.28-0.1-0.54-0.19-0.76-0.27c-0.66-0.23-1.13-0.78-1.28-1.44C55.54,68.51,53.21,69,50,69c-3.2,0-5.54-0.5-7.05-0.99c-0.14,0.66-0.62,1.22-1.28,1.45c-0.22,0.08-0.48,0.17-0.76,0.27c-0.633,0.224-1.424,0.508-2.383,0.857L42.654,84h14.692L61.473,70.586z" />
  <path fill="#1f212b" d="M50,55c-1.978,0-2.863-1.151-2.9-1.2c-0.165-0.221-0.12-0.534,0.101-0.7c0.219-0.165,0.53-0.121,0.697,0.097C47.93,53.237,48.555,54,50,54c1.454,0,2.077-0.771,2.104-0.805c0.169-0.216,0.483-0.257,0.699-0.09c0.217,0.167,0.262,0.476,0.098,0.694C52.863,53.849,51.978,55,50,55z" />
  <path fill="#1f212b" d="M50,67c-2.106,0-4.526-0.85-7-2.458l0.545-0.838C45.855,65.206,48.088,66,50,66s4.145-0.794,6.455-2.296L57,64.542C54.526,66.15,52.106,67,50,67z" />
  <path fill="#1f212b" d="M76,85H24c-0.553,0-1-0.447-1-1c0-0.087,0.099-8.73,8.648-11.937c4.5-1.688,7.339-2.713,8.928-3.275l0.751-0.268c0.333-0.116,0.575-0.39,0.645-0.719C41.991,67.712,42,67.645,42,67.58v-2.506c-4.242-2.913-8-7.609-8-10.074v-3.131c-1.781-0.508-2.328-2.404-2.819-4.106l-0.14-0.479C30.561,45.658,30,43.3,30,42c0-2.503,4.468-3.277,6.388-3.494l0.225,1.988c-2.371,0.269-4.463,1.051-4.614,1.519c0.002,0.84,0.405,2.823,0.961,4.704l0.143,0.491C33.727,49.371,34.051,50,35,50c0.553,0,1,0.447,1,1v4c0,1.491,3.24,5.9,7.546,8.702C43.829,63.887,44,64.202,44,64.54v3.04c0,0.207-0.023,0.416-0.072,0.642c-0.215,1.006-0.954,1.844-1.93,2.183l-0.75,0.268c-1.585,0.562-4.412,1.582-8.896,3.265c-5.64,2.114-6.953,6.963-7.259,9.063h49.822c-0.29-2.102-1.575-6.93-7.267-9.063c-4.484-1.683-7.312-2.703-8.893-3.264l-0.769-0.273c-0.961-0.334-1.682-1.143-1.912-2.158C56.024,68.01,56,67.79,56,67.58v-3.04c0-0.338,0.171-0.653,0.454-0.838C60.76,60.9,64,56.491,64,55v-4c0-0.553,0.447-1,1-1c0.949,0,1.273-0.629,1.898-2.792l0.143-0.491C67.597,44.836,68,42.853,68,42c-0.149-0.457-2.241-1.239-4.612-1.506l0.225-1.988C65.532,38.723,70,39.497,70,42c0,1.3-0.561,3.658-1.041,5.283l-0.14,0.479c-0.491,1.702-1.038,3.599-2.819,4.106V55c0,2.465-3.758,7.161-8,10.074v2.506c0,0.067,0.01,0.146,0.027,0.228c0.074,0.328,0.312,0.597,0.631,0.708l0.77,0.273c1.585,0.562,4.424,1.587,8.924,3.274C76.901,75.27,77,83.913,77,84C77,84.553,76.553,85,76,85z" />
  <path fill="#1f212b" d="M50,70c-3.444,0-5.911-0.563-7.374-1.035c-0.263-0.085-0.407-0.366-0.322-0.629s0.367-0.407,0.629-0.322C44.327,68.464,46.686,69,50,69c0.517,0,1.003-0.017,1.475-0.04c0.311-0.031,0.511,0.198,0.524,0.474c0.015,0.275-0.198,0.511-0.474,0.524C51.038,69.983,50.534,70,50,70z" />
  <path fill="#1f212b" d="M47.968,43.935c-0.186,2.191-1.176,4.845-4.832,5.061C37.979,48.988,37,46.882,37,43v-1.82c0-1.023,0.769-1.878,1.786-1.991C39.801,39.078,40.899,39,42,39c2.07,0,4.65,0.465,5.569,1.483C47.727,40.921,48.113,42.206,47.968,43.935z M48.445,39.973C47.259,38.432,44,38,42,38c-3.996,0-7.985,0.993-8,0.993l0,0l0.325,1.929C35.741,40.573,36,42,36,43c0,4,1,6.996,7.163,6.996c4.549-0.252,5.613-3.765,5.801-5.977C49.167,41.608,48.444,39.981,48.445,39.973z" />
  <path fill="#1f212b" d="M52,43.125c0,0-0.5-1.125-2-1.125s-2,1-2,1v-2h4V43.125z" />
  <path fill="#1f212b" d="M50,60c-4.696,0-7.724-2.23-7.85-2.325c-0.166-0.124-0.199-0.358-0.075-0.524c0.124-0.165,0.358-0.2,0.525-0.076C42.629,57.097,45.565,59,50,59s7.371-1.903,7.4-1.925c0.167-0.124,0.401-0.089,0.525,0.076c0.124,0.166,0.09,0.4-0.075,0.524C57.724,57.77,54.696,60,50,60z" />
  <path fill="#1f212b" d="M43,40c-0.799,0-1.482,0.589-1.803,1.435C41.378,41.178,41.662,41,42,41c0.552,0,1,0.448,1,1s-0.448,1-1,1c-0.502,0-0.899-0.376-0.971-0.857C41.015,42.26,41,42.378,41,42.5c0,1.381,0.895,2.5,2,2.5s2-1.119,2-2.5S44.105,40,43,40z" />
  <path fill="#1f212b" d="M57,40c-0.799,0-1.482,0.589-1.803,1.435C55.378,41.178,55.662,41,56,41c0.552,0,1,0.448,1,1s-0.448,1-1,1c-0.502,0-0.899-0.376-0.971-0.857C55.015,42.26,55,42.378,55,42.5c0,1.381,0.895,2.5,2,2.5s2-1.119,2-2.5S58.105,40,57,40z" />
  <path fill="#1f212b" d="M52.431,40.483C53.35,39.465,55.93,39,58,39c1.101,0,2.199,0.078,3.214,0.19C62.231,39.302,63,40.157,63,41.18V43c0,3.882-0.979,5.988-6.135,5.996c-3.656-0.216-4.646-2.87-4.832-5.061C51.887,42.206,52.273,40.921,52.431,40.483z M51.036,44.019c0.188,2.212,1.251,5.724,5.801,5.977C63,49.996,64,47,64,43c0-1,0.259-2.427,1.675-2.078L66,38.993l0,0c-0.015,0-4.004-0.993-8-0.993c-2,0-5.259,0.432-6.445,1.973C51.556,39.981,50.833,41.608,51.036,44.019z" />
  <path fill="#1f212b" d="M60.314,35.751L61,34.441c-1.277-0.298-2.64-0.443-4-0.441c-1.73,0.003-3.456,0.247-5,0.723L52.865,36c1.268-0.417,2.7-0.622,4.135-0.625C58.128,35.372,59.259,35.491,60.314,35.751z" />
  <path fill="#1f212b" d="M43,35.375c1.435,0.003,2.867,0.208,4.135,0.625L48,34.723c-1.544-0.476-3.27-0.719-5-0.723c-1.36-0.003-2.723,0.143-4,0.441l0.686,1.31C40.741,35.491,41.872,35.372,43,35.375z" />
  <path fill="#1f212b" d="M53.499,69.787c-0.248,0-0.463-0.185-0.495-0.437c-0.035-0.274,0.159-0.524,0.433-0.56c0.345-0.044,0.668-0.094,0.98-0.146c0.271-0.045,0.53,0.137,0.576,0.41c0.046,0.272-0.138,0.53-0.41,0.576c-0.324,0.055-0.661,0.106-1.02,0.152C53.542,69.786,53.521,69.787,53.499,69.787z" />
  <path fill="#78cdd4" d="M51.037,76c1.816-1.049,2.463-2.5,2.463-2.5l-3.5-4l-3.5,4c0,0,0.647,1.451,2.463,2.5h-0.13C46.5,78.55,46.5,83.5,46.5,83.5h7c0,0,0-4.95-2.333-7.5H51.037z" />
  <path fill="#1f212b" d="M50,77c-0.061,0-0.121-0.011-0.178-0.033c-2.789-1.062-3.741-3.177-3.78-3.267c-0.078-0.178-0.046-0.384,0.082-0.529l3.5-4c0.189-0.217,0.563-0.217,0.752,0l3.5,4c0.128,0.146,0.16,0.352,0.082,0.529c-0.039,0.09-0.991,2.205-3.78,3.267C50.121,76.989,50.061,77,50,77z M47.105,73.567c0.319,0.522,1.186,1.688,2.895,2.395c1.723-0.71,2.581-1.871,2.896-2.394L50,70.26L47.105,73.567z" />
  <path fill="#1f212b" d="M55.5,76c-0.13,0-0.258-0.051-0.354-0.146l-2-2c-0.195-0.195-0.195-0.512,0-0.707s0.512-0.195,0.707,0l1.765,1.765c4.468-1.887,5.398-4.542,5.407-4.569c0.089-0.262,0.372-0.402,0.633-0.316c0.262,0.088,0.403,0.371,0.316,0.633c-0.044,0.132-1.133,3.243-6.289,5.306C55.626,75.988,55.563,76,55.5,76z" />
  <path fill="#1f212b" d="M44.5,76c-0.063,0-0.126-0.012-0.186-0.036c-5.156-2.063-6.245-5.174-6.289-5.306c-0.087-0.262,0.055-0.545,0.316-0.633c0.262-0.086,0.544,0.053,0.632,0.314c0.013,0.036,0.986,2.702,5.408,4.571l1.765-1.765c0.195-0.195,0.512-0.195,0.707,0s0.195,0.512,0,0.707l-2,2C44.758,75.949,44.63,76,44.5,76z" />
  <path fill="#1f212b" d="M42.5,84c-0.214,0-0.412-0.138-0.478-0.353l-4-13c-0.082-0.265,0.066-0.544,0.33-0.625c0.268-0.083,0.545,0.066,0.625,0.33l4,13c0.082,0.265-0.066,0.544-0.33,0.625C42.598,83.993,42.549,84,42.5,84z" />
  <path fill="#1f212b" d="M57.5,84c-0.049,0-0.098-0.007-0.147-0.022c-0.264-0.081-0.412-0.36-0.33-0.625l4-13c0.08-0.265,0.355-0.415,0.625-0.33c0.264,0.081,0.412,0.36,0.33,0.625l-4,13C57.912,83.862,57.714,84,57.5,84z" />
  <path fill="#bb7a54" d="M50.5,15.501c-9.5,0-12.5,4.749-13,5.999c-3.959,1.682-7,6-7,11c0,8,4,11,4,11c0-9,5-14,5-17c0.467,3.726,9,6,9,6v-3c0,0,6.5,6,14,6c3,4,3,8,3,8s3-3,3-9C68.5,18,56.033,15.501,50.5,15.501z" />
  <path fill="#1f212b" d="M34.5,44c-0.106,0-0.212-0.034-0.3-0.1c-0.172-0.129-4.2-3.244-4.2-11.4c0-4.93,2.854-9.478,7.124-11.382c0.529-1.085,3.518-6.117,13.376-6.117c3.089,0,18.5,0.94,18.5,19.499c0,6.137-3.018,9.225-3.146,9.354c-0.144,0.144-0.359,0.185-0.544,0.108c-0.187-0.077-0.309-0.259-0.31-0.461c0-0.038-0.043-3.762-2.754-7.503C56.239,35.895,50.988,32.181,49,30.58v1.92c0,0.155-0.072,0.302-0.195,0.396s-0.281,0.123-0.434,0.087c-0.31-0.083-6.603-1.793-8.71-4.808c-0.286,0.812-0.729,1.715-1.231,2.74C36.982,33.868,35,37.91,35,43.5c0,0.189-0.107,0.362-0.276,0.447C34.653,43.982,34.576,44,34.5,44z M50.5,16.001c-10.146,0-12.443,5.452-12.536,5.685c-0.049,0.124-0.146,0.223-0.269,0.274C33.69,23.661,31,27.896,31,32.5c0,5.438,1.917,8.499,3.028,9.816c0.251-5.208,2.116-9.011,3.504-11.841C38.353,28.804,39,27.482,39,26.5c0-0.264,0.205-0.482,0.469-0.499c0.278-0.032,0.494,0.176,0.527,0.437c0.32,2.553,5.407,4.608,8.004,5.399V29.5c0-0.198,0.117-0.378,0.3-0.458c0.182-0.08,0.394-0.044,0.539,0.091C48.902,29.191,55.289,35,62.5,35c0.157,0,0.306,0.074,0.4,0.2c2.047,2.729,2.742,5.438,2.979,6.988C66.725,40.903,68,38.328,68,34.5C68,16.893,53.422,16.001,50.5,16.001z" />
  <path fill="#1f212b" d="M51.535,75.662L51.387,75.5l-0.446,1c1.631,1.943,1.971,5.248,2.041,6.5h-5.964c0.07-1.251,0.408-4.553,2.042-6.5l-0.448-1l-0.148,0.162C46.028,78.325,46,83.29,46,83.5V84h8v-0.5C54,83.29,53.972,78.325,51.535,75.662z" />
</svg>