<?xml version="1.0" encoding="utf-8"?>
<svg xmlns="http://www.w3.org/2000/svg" viewBox="0 0 24 24" width="384" height="384">
  <path d="M11.752,10.15c0,1.429-0.975,2.22-2.715,4.279h1.826c0.435,0,0.787,0.352,0.787,0.787v0c0,0.435-0.352,0.787-0.787,0.787H8.051c-0.653,0-1.183-0.529-1.183-1.183v0c0-0.282,0.101-0.557,0.286-0.771c2.001-2.323,2.806-2.991,2.806-3.877c0-0.235-0.049-0.856-0.684-0.856c-0.363,0-0.566,0.231-0.679,0.493c-0.143,0.331-0.49,0.524-0.849,0.49h0C7.179,10.247,6.803,9.65,7.04,9.129c0.321-0.705,0.972-1.376,2.293-1.376C11.268,7.754,11.752,9.202,11.752,10.15z" fill="#1E1E00" />
  <path d="M16.945,14.396v0.802c0,0.443-0.359,0.802-0.802,0.802h0c-0.443,0-0.802-0.359-0.802-0.802v-0.802h-1.675c-0.691,0-1.252-0.56-1.252-1.252v0c0-0.188,0.042-0.373,0.124-0.543l1.847-3.839C14.61,8.296,15.082,8,15.599,8h0c0.744,0,1.346,0.603,1.346,1.346v3.557h0.067c0.412,0,0.746,0.334,0.746,0.746v0c0,0.412-0.334,0.746-0.746,0.746H16.945z M15.375,9.763h-0.023l-1.367,3.14h1.39V9.763z" fill="#1E1E00" />
  <path d="M12,2V1.587c0-0.475-0.536-0.753-0.924-0.478L9.08,2.522c-0.33,0.234-0.33,0.723,0,0.956l1.995,1.413 C11.464,5.166,12,4.889,12,4.413V4c4.943,0,8.839,4.483,7.844,9.605c-0.606,3.119-3.12,5.633-6.239,6.239 C8.483,20.839,4,16.943,4,12c0-1.634,0.491-3.153,1.332-4.419c0.279-0.419,0.189-0.98-0.197-1.303 c-0.457-0.381-1.15-0.284-1.479,0.212c-1.266,1.913-1.894,4.286-1.573,6.816c0.571,4.501,4.254,8.124,8.763,8.629 C16.886,22.611,22,17.903,22,12C22,6.477,17.523,2,12,2z" opacity=".35" fill="#1E1E00" />
</svg>