<?xml version="1.0" encoding="utf-8"?>
<svg xmlns="http://www.w3.org/2000/svg" data-name="Слой 1" viewBox="0 0 24 24" width="384" height="384">
  <path d="M21.989,13.319A1.567,1.567,0,0,0,20.4,12H3.6a1.567,1.567,0,0,0-1.586,1.319A1.5,1.5,0,0,0,3.2,14.969L3.653,18.4A3,3,0,0,0,6.627,21H17.373a3,3,0,0,0,2.974-2.6l.456-3.427A1.5,1.5,0,0,0,21.989,13.319Z" opacity=".35" fill="#1E1E00" />
  <path d="M7,12H4V6.5a4.5,4.5,0,0,1,9,0V8H10V6.5a1.5,1.5,0,0,0-3,0Z" fill="#1E1E00" />
  <path d="M13,10H10a1,1,0,0,1-.707-1.707l1-1A1,1,0,0,1,11,7h1a1,1,0,0,1,.707.293l1,1A1,1,0,0,1,13,10Z" fill="#1E1E00" />
</svg>