<?xml version="1.0" encoding="utf-8"?>
<svg xmlns="http://www.w3.org/2000/svg" viewBox="0 0 24 24" width="384" height="384">
  <path d="M18,3H6C4.343,3,3,4.343,3,6c0,0.175,0,0.835,0,3v2h18V9c0-2.165,0-2.825,0-3C21,4.343,19.657,3,18,3z M5,9V8c0-1.105,0.895-2,2-2h2c1.105,0,2,0.895,2,2v1H5z M13,9V8c0-1.105,0.895-2,2-2h2c1.105,0,2,0.895,2,2v1H13z" fill="#1E1E00" />
  <path d="M21,11h-1V5H4v6H3c-0.552,0-1,0.448-1,1v7.5C2,20.328,2.672,21,3.5,21S5,20.328,5,19.5C5,19.324,5,19,5,19h14c0,0,0,0.324,0,0.5c0,0.828,0.672,1.5,1.5,1.5s1.5-0.672,1.5-1.5V12C22,11.448,21.552,11,21,11z" opacity=".35" fill="#1E1E00" />
</svg>