<?xml version="1.0" encoding="utf-8"?>
<svg xmlns="http://www.w3.org/2000/svg" viewBox="0 0 24 24" width="384" height="384">
  <circle cx="19" cy="17" r="5" opacity=".35" fill="#1E1E00" />
  <circle cx="5" cy="17" r="5" opacity=".35" fill="#1E1E00" />
  <path d="M15.12,8.026l-3.274,6.072c-0.254,0.471-0.933,0.461-1.173-0.017l-2.779-5.53C7.647,8.06,7.046,7.859,6.552,8.106S5.858,8.955,6.106,9.448l2.35,4.681C8.888,14.988,8.264,16,7.303,16H5c-0.553,0-1,0.447-1,1s0.447,1,1,1h4.192c1.743,0,3.344-0.957,4.17-2.491L16.328,10L15.12,8.026z" fill="#1E1E00" />
  <path d="M9,10H5c-0.553,0-1-0.447-1-1s0.447-1,1-1h4c0.553,0,1,0.447,1,1S9.553,10,9,10z" fill="#1E1E00" />
  <path d="M19,18c-0.409,0-0.792-0.252-0.94-0.658l-4-11c-0.111-0.307-0.066-0.648,0.121-0.915C14.368,5.159,14.674,5,15,5h3.93c1.664,0,3.012,1.303,3.07,2.966c0.019,0.552-0.413,1.015-0.965,1.033C20.471,9.03,20.02,8.587,20,8.034C19.98,7.454,19.51,7,18.93,7h-2.502l3.512,9.658c0.188,0.52-0.079,1.093-0.598,1.281C19.229,17.98,19.114,18,19,18z" fill="#1E1E00" />
</svg>