<?xml version="1.0" encoding="utf-8"?>
<svg xmlns="http://www.w3.org/2000/svg" viewBox="0 0 40 40" width="480" height="480">
  <path fill="#00FF6D" d="M3.5 33.5L3.5 13.286 19.998 3.58 36.5 13.286 36.5 33.5z" />
  <path fill="#4bd000" d="M19.998,4.16L36,13.572V33H4V13.572L19.998,4.16 M19.998,3L3,13v21h34V13L19.998,3L19.998,3z" />
  <path fill="#4bd000" d="M19.998 5.645L1.5 16.955 1.5 12.896 19.998 1.586 38.5 12.896 38.5 16.955z" />
  <path fill="#060606" d="M19.998,2.172L38,13.176v2.887L20.519,5.378l-0.522-0.319l-0.522,0.319L2,16.063v-2.887 L19.998,2.172 M19.998,1L1,12.615v5.231L19.998,6.231L39,17.846v-5.231L19.998,1L19.998,1z" />
  <g>
    <path fill="#00FF00" d="M20 34.441L12.5 38.191 12.5 19.5 27.5 19.5 27.5 38.191z" />
    <path fill="#060606" d="M27,20v17.382l-6.553-3.276L20,33.882l-0.447,0.224L13,37.382V20H27 M28,19H12v20l8-4l8,4V19L28,19 z" />
  </g>
</svg>