<?xml version="1.0" encoding="utf-8"?>
<svg xmlns="http://www.w3.org/2000/svg" viewBox="0 0 24 24" width="384" height="384">
  <path d="M3,16v2c0,1.657,1.343,3,3,3h12c1.657,0,3-1.343,3-3v-2H3z" fill="#1E1E00" />
  <path d="M7,22L7,22c-0.552,0-1-0.448-1-1v-2h2v2C8,21.552,7.552,22,7,22z" fill="#1E1E00" />
  <path d="M17,22L17,22c-0.552,0-1-0.448-1-1v-2h2v2C18,21.552,17.552,22,17,22z" fill="#1E1E00" />
  <path d="M18,3H6C4.343,3,3,4.343,3,6v10h18V6C21,4.343,19.657,3,18,3z" opacity=".35" fill="#1E1E00" />
  <circle cx="8" cy="10" r="1" fill="#1E1E00" />
  <circle cx="16" cy="10" r="1" fill="#1E1E00" />
  <rect width="2" height="14" x="11" y="3" fill="#1E1E00" />
</svg>