<?xml version="1.0" encoding="utf-8"?>
<svg xmlns="http://www.w3.org/2000/svg" viewBox="0 0 24 24" width="384" height="384">
  <path d="M18.673,13.092l0.051-0.081l-0.003-0.007C18.894,12.708,19,12.368,19,12c0-0.974-0.697-1.783-1.619-1.962L14,9V4 c0-1.105-0.895-2-2-2c-0.712,0-1.333,0.375-1.688,0.936l-0.005-0.001l-4.944,7.921C5.136,11.18,5,11.573,5,12 c0,0.91,0.611,1.669,1.442,1.911l0.002,0.006L10,15v5c0,1.105,0.895,2,2,2c0.773,0,1.436-0.444,1.769-1.086l4.88-7.785 C18.658,13.117,18.665,13.104,18.673,13.092z" opacity=".35" fill="#1E1E00" />
  <circle cx="2" cy="12" r="1" fill="#1E1E00" />
  <path d="M4.293,6.707C4.488,6.902,4.744,7,5,7s0.512-0.098,0.707-0.293c0.391-0.391,0.391-1.023,0-1.414l-2-2 c-0.391-0.391-1.023-0.391-1.414,0s-0.391,1.023,0,1.414L4.293,6.707z" fill="#1E1E00" />
  <path d="M4.293,17.293l-2,2c-0.391,0.391-0.391,1.023,0,1.414C2.488,20.902,2.744,21,3,21s0.512-0.098,0.707-0.293l2-2 c0.391-0.391,0.391-1.023,0-1.414S4.684,16.902,4.293,17.293z" fill="#1E1E00" />
  <g>
    <circle cx="22" cy="12" r="1" fill="#1E1E00" />
    <path d="M19.707,17.293c-0.391-0.391-1.023-0.391-1.414,0s-0.391,1.023,0,1.414l2,2C20.488,20.902,20.744,21,21,21 s0.512-0.098,0.707-0.293c0.391-0.391,0.391-1.023,0-1.414L19.707,17.293z" fill="#1E1E00" />
    <path d="M19.707,3.293c-0.391-0.391-1.023-0.391-1.414,0l-2,2c-0.391,0.391-0.391,1.023,0,1.414C16.488,6.902,16.744,7,17,7 s0.512-0.098,0.707-0.293l2-2C20.098,4.316,20.098,3.684,19.707,3.293z" fill="#1E1E00" />
  </g>
</svg>