<?xml version="1.0" encoding="utf-8"?>
<svg xmlns="http://www.w3.org/2000/svg" viewBox="0 0 24 24" width="384" height="384">
  <path d="M15,7H9V4c0-1.105,0.895-2,2-2h2c1.105,0,2,0.895,2,2V7z" fill="#1E1E00" />
  <path d="M12,4H8C7.448,4,7,3.552,7,3v0c0-0.552,0.448-1,1-1h4V4z" fill="#1E1E00" />
  <path d="M19,13v-3c0-1.657-1.343-3-3-3H8c-1.657,0-3,1.343-3,3v3l3,6h7L19,13z" opacity=".35" fill="#1E1E00" />
  <path d="M16,11c0,1.105-0.895,2-2,2s-2-0.895-2-2H5v8c0,1.657,1.343,3,3,3h8c1.657,0,3-1.343,3-3v-8H16z M9.5,17C8.672,17,8,16.328,8,15.5S8.672,14,9.5,14s1.5,0.672,1.5,1.5S10.328,17,9.5,17z M14,19c-0.552,0-1-0.448-1-1c0-0.552,0.448-1,1-1s1,0.448,1,1C15,18.552,14.552,19,14,19z" fill="#1E1E00" />
  <path d="M14,9c-1.105,0-2,0.895-2,2h4C16,9.895,15.105,9,14,9z" fill="#1E1E00" />
</svg>