<?xml version="1.0" encoding="utf-8"?>
<svg xmlns="http://www.w3.org/2000/svg" viewBox="0 0 24 24" width="384" height="384">
  <circle cx="18.5" cy="5.5" r="3.5" opacity=".35" fill="#1E1E00" />
  <path d="M19.619,6.85v0.483c0,0.267-0.216,0.483-0.483,0.483h0c-0.267,0-0.483-0.216-0.483-0.483V6.85h-1.008 c-0.416,0-0.753-0.337-0.753-0.753v0c0-0.113,0.025-0.225,0.075-0.327l1.112-2.311C18.213,3.178,18.497,3,18.808,3h0 c0.448,0,0.81,0.363,0.81,0.81v2.142h0.041c0.248,0,0.449,0.201,0.449,0.449v0c0,0.248-0.201,0.449-0.449,0.449H19.619z M18.674,4.062H18.66l-0.823,1.891h0.837V4.062z" fill="#1E1E00" />
  <path d="M20.5,21L20.5,21c0.828,0,1.5-0.672,1.5-1.5V15H5V7.5C5,6.672,4.328,6,3.5,6S2,6.672,2,7.5v12C2,20.328,2.672,21,3.5,21S5,20.328,5,19.5V19h14v0.5C19,20.328,19.672,21,20.5,21z" opacity=".35" fill="#1E1E00" />
  <path d="M20,11h-9c0-1.657-1.343-3-3-3H5v3v4h17v-2C22,11.895,21.105,11,20,11z" fill="#1E1E00" />
</svg>