<?xml version="1.0" encoding="utf-8"?>
<svg xmlns="http://www.w3.org/2000/svg" viewBox="0 0 24 24" width="384" height="384">
  <path d="M18,5H6c-2.761,0-5,2.239-5,5c0,0.712,0,5.288,0,6c0,2.761,2.239,5,5,5c4,0,4-3,6-3s2,3,6,3c2.761,0,5-2.239,5-5c0-0.712,0-5.288,0-6C23,7.239,20.761,5,18,5z" opacity=".35" fill="#1E1E00" />
  <path d="M8,12c-0.066,0-3.934,0-4,0c-0.552,0-1,0.448-1,1c0,0.552,0.448,1,1,1c0.066,0,3.934,0,4,0c0.552,0,1-0.448,1-1C9,12.448,8.552,12,8,12z" fill="#1E1E00" />
  <path d="M7,15c0-0.066,0-3.934,0-4c0-0.552-0.448-1-1-1c-0.552,0-1,0.448-1,1c0,0.066,0,3.934,0,4c0,0.552,0.448,1,1,1C6.552,16,7,15.552,7,15z" fill="#1E1E00" />
  <circle cx="18" cy="11" r="1" fill="#1E1E00" />
  <circle cx="18" cy="15" r="1" fill="#1E1E00" />
  <circle cx="20" cy="13" r="1" fill="#1E1E00" />
  <circle cx="16" cy="13" r="1" fill="#1E1E00" />
  <path d="M6,5c0-0.552,0.448-1,1-1h2c0.552,0,1,0.448,1,1H6z" fill="#1E1E00" />
  <path d="M14,5c0-0.552,0.448-1,1-1h2c0.552,0,1,0.448,1,1H14z" fill="#1E1E00" />
</svg>