<?xml version="1.0" encoding="utf-8"?>
<svg xmlns="http://www.w3.org/2000/svg" viewBox="0 0 24 24" width="384" height="384">
  <path d="M16,20H8c-1.105,0-2-0.895-2-2v-7c0-2.761,2.239-5,5-5h2c2.761,0,5,2.239,5,5v7C18,19.105,17.105,20,16,20z" opacity=".35" fill="#1E1E00" />
  <path d="M14,1h-4C9.448,1,9,1.448,9,2v5h6V2C15,1.448,14.552,1,14,1z" opacity=".35" fill="#1E1E00" />
  <path d="M16,20H8c-1.105,0-2,0.895-2,2v0c0,0.552,0.448,1,1,1h10c0.552,0,1-0.448,1-1v0C18,20.895,17.105,20,16,20z" opacity=".35" fill="#1E1E00" />
  <path d="M13,6V4c0-0.552-0.448-1-1-1c-0.552,0-1,0.448-1,1v2c-2.761,0-5,2.239-5,5v7c0,1.104,0.895,2,2,2h8c1.105,0,2-0.896,2-2v-7C18,8.239,15.761,6,13,6z M13.468,17.355C13.795,17.002,14,16.535,14,16.018c0-0.776-1.004-2.111-1.589-2.823c-0.213-0.259-0.608-0.259-0.821,0C11.004,13.907,10,15.242,10,16.018c0,0.517,0.205,0.984,0.532,1.337C9.622,16.844,9,15.887,9,14.776c0-1.164,1.506-3.166,2.384-4.235c0.319-0.389,0.913-0.389,1.232,0C13.494,11.61,15,13.613,15,14.776C15,15.887,14.378,16.844,13.468,17.355z" fill="#1E1E00" />
</svg>