<?xml version="1.0" encoding="utf-8"?>
<svg xmlns="http://www.w3.org/2000/svg" viewBox="0 0 24 24" width="384" height="384">
  <path d="M20,4c0-0.552-0.448-1-1-1c-2.761,0-5,2.239-5,5v3.558c0,0.861,0.551,1.625,1.368,1.897L16,13.667V15h4V4z" opacity=".35" fill="#1E1E00" />
  <path d="M18,21c1.105,0,2-0.895,2-2v-4h-4v4C16,20.105,16.895,21,18,21z" fill="#1E1E00" />
  <path d="M7,21c1.105,0,2-0.895,2-2v-4H5v4C5,20.105,5.895,21,7,21z" fill="#1E1E00" />
  <path d="M5,11.816V15h4v-3.184c1.163-0.413,2-1.512,2-2.816V4c0-0.552-0.448-1-1-1S9,3.448,9,4v4c0,0.276-0.224,0.5-0.5,0.5S8,8.276,8,8V4c0-0.552-0.448-1-1-1S6,3.448,6,4v4c0,0.276-0.224,0.5-0.5,0.5S5,8.276,5,8V4c0-0.552-0.448-1-1-1S3,3.448,3,4v5C3,10.304,3.837,11.403,5,11.816z" opacity=".35" fill="#1E1E00" />
</svg>