<?xml version="1.0" encoding="utf-8"?>
<svg xmlns="http://www.w3.org/2000/svg" data-name="Слой 1" viewBox="0 0 24 24" width="384" height="384">
  <rect width="13" height="11" x="3" y="6" rx="2" fill="#1E1E00" />
  <path d="M20,4H4A3,3,0,0,0,1,7v9a3,3,0,0,0,3,3H20a3,3,0,0,0,3-3V7A3,3,0,0,0,20,4Z" opacity=".35" fill="#1E1E00" />
  <path d="M20,7a1,1,0,1,1-1-1A1,1,0,0,1,20,7Zm-1,3a1,1,0,1,0,1,1A1,1,0,0,0,19,10Z" fill="#1E1E00" />
  <path d="M5,19H8a0,0,0,0,1,0,0v.5A1.5,1.5,0,0,1,6.5,21h0A1.5,1.5,0,0,1,5,19.5V19A0,0,0,0,1,5,19Z" fill="#1E1E00" />
  <path d="M16,19h3a0,0,0,0,1,0,0v.5A1.5,1.5,0,0,1,17.5,21h0A1.5,1.5,0,0,1,16,19.5V19A0,0,0,0,1,16,19Z" fill="#1E1E00" />
  <circle cx="19" cy="15" r="1" fill="#1E1E00" />
</svg>