<?xml version="1.0" encoding="utf-8"?>
<svg xmlns="http://www.w3.org/2000/svg" viewBox="0 0 24 24" width="384" height="384">
  <path d="M4.086,19.908c1.456,1.456,6.73-3.818,5.274-5.274l-0.928-0.929l5.274-5.274l0.929,0.929c1.456,1.456,6.73-3.818,5.274-5.274c-0.931-0.931-2.23-1.26-3.428-1.001c-1.654,0.222-5.452,1.091-8.878,4.517s-4.295,7.225-4.517,8.878C2.826,17.678,3.155,18.977,4.086,19.908z" opacity=".35" fill="#1E1E00" />
  <path d="M9.359,19.909c1.456-1.456,1.456-3.814,0.003-5.271l-5.273,5.273C5.546,21.364,7.905,21.363,9.359,19.909z" fill="#1E1E00" />
  <path d="M19.907,9.361c1.456-1.456,1.456-3.815,0.003-5.271l-5.273,5.273C16.094,10.816,18.452,10.815,19.907,9.361z" fill="#1E1E00" />
  <path d="M21,22c-0.256,0-0.512-0.098-0.707-0.293l-18-18c-0.391-0.391-0.391-1.023,0-1.414s1.023-0.391,1.414,0l18,18c0.391,0.391,0.391,1.023,0,1.414C21.512,21.902,21.256,22,21,22z" fill="#1E1E00" />
</svg>