<?xml version="1.0" encoding="utf-8"?>
<svg xmlns="http://www.w3.org/2000/svg" viewBox="0 0 24 24" width="384" height="384">
  <path d="M1,12h21v6H1c-0.552,0-1-0.448-1-1v-4C0,12.448,0.448,12,1,12z" opacity=".35" fill="#1E1E00" />
  <path d="M18.001,10c-0.367,0-0.72-0.202-0.896-0.553c-0.674-1.348-1.935-1.849-3.395-2.43C11.612,6.183,9,5.145,9,1c0-0.552,0.448-1,1-1s1,0.448,1,1c0,2.788,1.447,3.363,3.449,4.159c1.608,0.639,3.43,1.363,4.445,3.394c0.247,0.494,0.047,1.095-0.447,1.342C18.304,9.966,18.151,10,18.001,10z M22,9c-0.552,0-1-0.448-1-1c0-1.439-0.561-2-2-2c-0.552,0-1-0.448-1-1c0-1.398-1.518-2-2-2c-0.552,0-1-0.448-1-1s0.448-1,1-1c1.256,0,3.378,1.024,3.888,3.065C21.878,4.375,23,5.771,23,8C23,8.552,22.552,9,22,9z" opacity=".35" fill="#1E1E00" />
  <path d="M21,22c-0.256,0-0.512-0.098-0.707-0.293l-18-18c-0.391-0.391-0.391-1.023,0-1.414s1.023-0.391,1.414,0l18,18c0.391,0.391,0.391,1.023,0,1.414C21.512,21.902,21.256,22,21,22z" fill="#1E1E00" />
  <path d="M23,12h-6v1.598L21.402,18H23c0.552,0,1-0.448,1-1v-4C24,12.448,23.552,12,23,12z" fill="#1E1E00" />
</svg>