<?xml version="1.0" encoding="utf-8"?>
<svg xmlns="http://www.w3.org/2000/svg" viewBox="0 0 128 128" width="512" height="512">
  <path d="M64 7.5C41.9 7.5 23.8 24.599609 22.5 46.599609C17.7 47.699609 14.500391 52.500391 15.400391 57.400391L18.800781 76.5C19.600781 81 23.499609 84.300781 28.099609 84.300781C28.599609 84.300781 29.199219 84.299219 29.699219 84.199219L37.800781 82.800781C39.400781 82.500781 40.499219 81.000781 40.199219 79.300781L36.099609 56.199219C37.999609 52.799219 39.999219 50.799609 42.199219 50.099609C46.399219 48.799609 52.200391 51.800781 58.900391 55.300781C66.700391 59.400781 76.199609 64.300781 87.099609 64.300781C88.299609 64.300781 89.499219 64.199609 90.699219 64.099609L88.300781 79.599609L88.300781 79.699219C79.100781 100.19922 68.200391 102.40039 63.900391 102.40039C59.700391 102.40039 51.5 100.40078 43.5 87.300781C42.6 85.900781 40.800391 85.400781 39.400391 86.300781C38.000391 87.200781 37.500391 89.000391 38.400391 90.400391C47.900391 106.10039 58.500391 108.40039 63.900391 108.40039C79.200391 108.40039 88.899219 92.300391 93.199219 83.400391L98.300781 84.199219C98.800781 84.299219 99.400391 84.300781 99.900391 84.300781C104.50039 84.300781 108.39922 81 109.19922 76.5L112.59961 57.400391C113.49961 52.500391 110.3 47.799609 105.5 46.599609C104.2 24.699609 86 7.5 64 7.5 z M 64.099609 13.300781C82.399609 13.300781 97.6 27.200781 99.5 45.300781L97.900391 45C93.700391 27.2 81.6 16.900391 64 16.900391C48.7 16.900391 37.399609 24.8 32.099609 39C31.499609 40.6 32.300391 42.300391 33.900391 42.900391C35.500391 43.500391 37.200781 42.699609 37.800781 41.099609C42.100781 29.199609 51.2 22.600391 64 22.900391C88.8 23.500391 85.800781 57.800781 85.800781 57.800781C74.400781 59.500781 70.499219 54.400781 61.699219 49.800781C53.799219 45.700781 47.000391 42.099219 40.400391 44.199219C38.300391 44.899219 36.399219 46.100781 34.699219 47.800781L34.599609 47.300781C34.499609 46.500781 34.000391 45.800391 33.400391 45.400391C32.700391 44.900391 31.899219 44.800391 31.199219 44.900391L28.699219 45.300781C30.599219 27.200781 45.699609 13.300781 64.099609 13.300781 z M 29.199219 51.5L33.699219 77.400391L28.599609 78.300781C28.399609 78.300781 28.2 78.400391 28 78.400391C26.3 78.400391 24.899609 77.2 24.599609 75.5L21.199219 56.400391C20.899219 54.500391 22.1 52.700391 24 52.400391L29.199219 51.5 z M 98.800781 51.5L103.90039 52.400391C105.80039 52.700391 106.99922 54.500391 106.69922 56.400391L103.30078 75.5C103.00078 77.2 101.60039 78.400391 99.900391 78.400391C99.700391 78.400391 99.500781 78.400781 99.300781 78.300781L94.699219 77.5L98.800781 51.5 z M 51.599609 107.40039C51.499609 107.40039 51.400781 107.4 51.300781 107.5L51.199219 107.5C51.099219 107.5 51.1 107.49961 51 107.59961L50.800781 107.59961L28.699219 116.59961C27.199219 117.19961 26.399609 119 27.099609 120.5C27.599609 121.8 28.8 122.5 30 122.5C30.4 122.5 30.799609 122.40078 31.099609 122.30078L50.400391 114.40039C53.000391 119.40039 58.1 122.5 64 122.5C69.9 122.5 74.999609 119.40039 77.599609 114.40039L96.900391 122.30078C97.300391 122.50078 97.7 122.5 98 122.5C99.2 122.5 100.30078 121.79961 100.80078 120.59961C101.40078 119.09961 100.69922 117.29922 99.199219 116.69922L77.099609 107.69922C75.599609 107.09922 73.799219 107.80078 73.199219 109.30078C73.199219 109.40078 73.099609 109.49961 73.099609 109.59961C71.599609 114.69961 67.5 116.5 64 116.5C60.6 116.5 56.400391 114.69961 54.900391 109.59961C54.900391 109.49961 54.900781 109.50039 54.800781 109.40039L54.800781 109.19922C54.800781 109.19922 54.799219 109.09961 54.699219 109.09961C54.699219 108.99961 54.599609 108.90078 54.599609 108.80078C54.599609 108.70078 54.500391 108.59961 54.400391 108.59961C54.300391 108.49961 54.299219 108.40039 54.199219 108.40039L54 108.19922L53.800781 108C53.700781 107.9 53.599609 107.90078 53.599609 107.80078C53.499609 107.80078 53.400391 107.69922 53.400391 107.69922C53.300391 107.69922 53.199609 107.59961 53.099609 107.59961C52.999609 107.59961 52.900781 107.5 52.800781 107.5C52.700781 107.5 52.6 107.50039 52.5 107.40039L52.199219 107.40039L51.900391 107.40039L51.599609 107.40039 z" fill="#0062DD" />
</svg>