<?xml version="1.0" encoding="utf-8"?>
<svg xmlns="http://www.w3.org/2000/svg" viewBox="0 0 24 24" width="384" height="384">
  <path d="M18,21H6c-1.657,0-3-1.343-3-3V6c0-1.657,1.343-3,3-3h12c1.657,0,3,1.343,3,3v12C21,19.657,19.657,21,18,21z" opacity=".35" fill="#1E1E00" />
  <path d="M16.407,10.762c0,3.275-2.649,3.865-3.577,3.865h-1.169v2.042c0,0.735-0.596,1.331-1.331,1.331h0C9.596,18,9,17.404,9,16.669V8.583C9,7.709,9.709,7,10.583,7h2.146C13.627,7,16.407,7.34,16.407,10.762z M13.865,10.814c0-1.357-0.967-1.526-1.339-1.526h-0.864v3.137h0.864C12.898,12.424,13.865,12.171,13.865,10.814z" fill="#1E1E00" />
</svg>