<?xml version="1.0" encoding="utf-8"?>
<svg xmlns="http://www.w3.org/2000/svg" viewBox="0 0 24 24" width="384" height="384">
  <path d="M3.086,7.52c0.222,1.653,1.091,5.452,4.517,8.878s7.224,4.295,8.878,4.517c1.198,0.259,2.497-0.07,3.428-1.001c1.456-1.456-3.818-6.73-5.274-5.274l-0.929,0.929l-5.274-5.274L9.36,9.366c1.456-1.456-3.818-6.73-5.274-5.274C3.155,5.023,2.826,6.322,3.086,7.52z" opacity=".35" fill="#1E1E00" />
  <path d="M4.089,4.089l5.273,5.273c1.453-1.457,1.453-3.815-0.003-5.271C7.905,2.637,5.546,2.636,4.089,4.089z" fill="#1E1E00" />
  <path d="M14.637,14.637l5.273,5.273c1.453-1.456,1.453-3.815-0.003-5.271C18.452,13.185,16.094,13.184,14.637,14.637z" fill="#1E1E00" />
</svg>