<?xml version="1.0" encoding="utf-8"?>
<svg xmlns="http://www.w3.org/2000/svg" viewBox="0 0 24 24" width="384" height="384">
  <path d="M18.5,17c-1.38,0-2.5,1.12-2.5,2.5s1.12,2.5,2.5,2.5s2.5-1.12,2.5-2.5S19.88,17,18.5,17z M19,20c-0.55,0-1-0.45-1-1s0.45-1,1-1s1,0.45,1,1S19.55,20,19,20z" fill="#1E1E00" />
  <path d="M3.589,17c0.176,0,3.5,0,3.5,0c0.552,0,1-0.448,1-1v-2h3v2c0,2.209-1.791,4-4,4c0,0-3.324,0-3.5,0c-0.828,0-1.5-0.672-1.5-1.5S2.761,17,3.589,17z" fill="#1E1E00" />
  <path d="M14,14H5c-1.657,0-3-1.343-3-3V5c0-1.657,1.343-3,3-3h9c1.657,0,3,1.343,3,3v6C17,12.657,15.657,14,14,14z" opacity=".35" fill="#1E1E00" />
  <path d="M9.5,8h3C13.329,8,14,7.329,14,6.5S13.329,5,12.5,5h-3C8.671,5,8,5.671,8,6.5S8.671,8,9.5,8z" fill="#1E1E00" />
  <path d="M17,5.25v5.5l2.6,1.95c0.26,0.2,0.58,0.3,0.9,0.3c0.23,0,0.46-0.05,0.67-0.16C21.68,12.59,22,12.07,22,11.5v-7c0-0.57-0.32-1.09-0.83-1.34c-0.51-0.26-1.11-0.2-1.57,0.14L17,5.25z" fill="#1E1E00" />
  <path d="M23.37,17.69C22.38,16.44,20.76,15,18.5,15s-3.88,1.44-4.87,2.69c-0.83,1.06-0.83,2.56,0,3.62C14.62,22.56,16.24,24,18.5,24s3.88-1.44,4.87-2.69C24.2,20.25,24.2,18.75,23.37,17.69z" opacity=".35" fill="#1E1E00" />
</svg>