<?xml version="1.0" encoding="utf-8"?>
<svg xmlns="http://www.w3.org/2000/svg" viewBox="0 0 30 30" width="480" height="480">
  <path d="M17 2 A 1 1 0 0 0 16.123047 2.5214844L8.1738281 15.433594L8.1738281 15.435547 A 1 1 0 0 0 8 16 A 1 1 0 0 0 9 17L14.5 17L13.019531 26.800781 A 1 1 0 0 0 13 27 A 1 1 0 0 0 14 28 A 1 1 0 0 0 14.882812 27.466797L14.884766 27.466797L22.806641 14.589844L22.796875 14.572266C22.915239 14.407976 23 14.217804 23 14C23 13.448 22.552 13 22 13L16.5 13L17.955078 3.2949219 A 1 1 0 0 0 18 3 A 1 1 0 0 0 17 2 z" fill="#FF5D01" />
</svg>