<?xml version="1.0" encoding="utf-8"?>
<svg xmlns="http://www.w3.org/2000/svg" viewBox="0 0 24 24" width="384" height="384">
  <path d="M15,6v12c0,1.657,1.343,3,3,3V3C16.343,3,15,4.343,15,6z" opacity=".35" fill="#1E1E00" />
  <path d="M21,18V6c0-1.657-1.343-3-3-3v18C19.657,21,21,19.657,21,18z" fill="#1E1E00" />
  <path d="M9,6v12c0,1.657,1.343,3,3,3V3C10.343,3,9,4.343,9,6z" opacity=".35" fill="#1E1E00" />
  <path d="M15,18V6c0-1.657-1.343-3-3-3v18C13.657,21,15,19.657,15,18z" fill="#1E1E00" />
  <path d="M9,18V6c0-1.657-1.343-3-3-3v18C7.657,21,9,19.657,9,18z" fill="#1E1E00" />
  <circle cx="20.5" cy="7.5" r="1.5" fill="#1E1E00" />
  <circle cx="20.5" cy="16.5" r="1.5" fill="#1E1E00" />
  <path d="M3,6v0.092C2.419,6.298,2,6.848,2,7.5s0.419,1.202,1,1.408v6.184c-0.581,0.207-1,0.756-1,1.408s0.419,1.202,1,1.408V18 c0,1.657,1.343,3,3,3V3C4.343,3,3,4.343,3,6z" opacity=".35" fill="#1E1E00" />
</svg>