<?xml version="1.0" encoding="utf-8"?>
<svg xmlns="http://www.w3.org/2000/svg" viewBox="0 0 24 24" width="384" height="384">
  <path d="M10,4.999C10,6.104,10.895,7,11.999,7C13.106,7,14,6.104,14,4.999C14,3.896,13.106,3,11.999,3C10.895,3,10,3.896,10,4.999z" opacity=".35" fill="#1E1E00" />
  <path d="M20.5,15h-17C2.672,15,2,15.672,2,16.5v4C2,21.328,2.672,22,3.5,22S5,21.328,5,20.5V18h14v2.5c0,0.828,0.672,1.5,1.5,1.5 s1.5-0.672,1.5-1.5v-4C22,15.672,21.328,15,20.5,15z" opacity=".35" fill="#1E1E00" />
  <path d="M17.83,11.441l-1.522-2.261c-0.096-0.143-0.228-0.259-0.382-0.336C14.82,8.292,13.583,8,12.348,8h-0.695C10.417,8,9.18,8.292,8.075,8.845C7.92,8.922,7.789,9.038,7.692,9.181L6.17,11.441c-0.226,0.336-0.228,0.776-0.002,1.113l1.545,2.318l-0.42,0.42c-0.074,0.074-0.133,0.159-0.18,0.25c-0.01,0.019-0.013,0.04-0.021,0.06c-0.038,0.087-0.064,0.178-0.076,0.272c-0.005,0.036-0.006,0.07-0.006,0.106c-0.002,0.093,0.01,0.184,0.034,0.275c0.005,0.021,0.001,0.041,0.008,0.062c0.003,0.008,0.009,0.013,0.012,0.021c0.004,0.011,0.004,0.023,0.008,0.034l2,5C9.227,21.76,9.601,22,10,22c0.094,0,0.19-0.014,0.285-0.041c0.495-0.147,0.797-0.648,0.695-1.155l-0.889-4.447L11.162,16h1.676l1.071,0.357l-0.889,4.447c-0.102,0.507,0.2,1.008,0.695,1.155C13.81,21.986,13.906,22,14,22c0.399,0,0.773-0.24,0.929-0.629l2-5c0.004-0.01,0.004-0.02,0.007-0.03c0.003-0.009,0.01-0.016,0.013-0.025c0.007-0.021,0.002-0.041,0.008-0.062c0.024-0.091,0.036-0.182,0.034-0.275c-0.001-0.036-0.002-0.071-0.006-0.106c-0.012-0.094-0.037-0.184-0.076-0.272c-0.009-0.02-0.012-0.041-0.021-0.06c-0.047-0.09-0.106-0.175-0.18-0.25l-0.42-0.42l1.545-2.318C18.057,12.218,18.056,11.777,17.83,11.441z M14.979,10.788l0.818,1.215L15,13.197V11C15,10.927,14.984,10.859,14.979,10.788z M9.021,10.788C9.016,10.859,9,10.927,9,11v2.197l-0.796-1.194L9.021,10.788z" fill="#1E1E00" />
  <path d="M3,11L3,11c-0.552,0-1-0.448-1-1V8c0-0.552,0.448-1,1-1h0c0.552,0,1,0.448,1,1v2C4,10.552,3.552,11,3,11z" fill="#1E1E00" />
  <path d="M6,7L6,7C5.448,7,5,6.552,5,6V4c0-0.552,0.448-1,1-1h0c0.552,0,1,0.448,1,1v2C7,6.552,6.552,7,6,7z" fill="#1E1E00" />
  <path d="M21,11L21,11c0.552,0,1-0.448,1-1V8c0-0.552-0.448-1-1-1h0c-0.552,0-1,0.448-1,1v2C20,10.552,20.448,11,21,11z" fill="#1E1E00" />
  <path d="M18,7L18,7c0.552,0,1-0.448,1-1V4c0-0.552-0.448-1-1-1h0c-0.552,0-1,0.448-1,1v2C17,6.552,17.448,7,18,7z" fill="#1E1E00" />
</svg>