<?xml version="1.0" encoding="utf-8"?>
<svg xmlns="http://www.w3.org/2000/svg" viewBox="0 0 24 24" width="384" height="384">
  <path d="M19,20H5c-1.657,0-3-1.343-3-3V7c0-1.657,1.343-3,3-3h14c1.657,0,3,1.343,3,3v10C22,18.657,20.657,20,19,20z" opacity=".35" fill="#1E1E00" />
  <circle cx="8" cy="10" r="2" fill="#1E1E00" />
  <path d="M10.5,16h-5C4.672,16,4,15.328,4,14.5v0C4,13.672,4.672,13,5.5,13h5c0.828,0,1.5,0.672,1.5,1.5v0C12,15.328,11.328,16,10.5,16z" fill="#1E1E00" />
  <path d="M19,9h-4c-0.552,0-1-0.448-1-1v0c0-0.552,0.448-1,1-1h4c0.552,0,1,0.448,1,1v0C20,8.552,19.552,9,19,9z" fill="#1E1E00" />
  <path d="M19,13h-4c-0.552,0-1-0.448-1-1v0c0-0.552,0.448-1,1-1h4c0.552,0,1,0.448,1,1v0C20,12.552,19.552,13,19,13z" fill="#1E1E00" />
  <path d="M19,17h-4c-0.552,0-1-0.448-1-1v0c0-0.552,0.448-1,1-1h4c0.552,0,1,0.448,1,1v0C20,16.552,19.552,17,19,17z" fill="#1E1E00" />
</svg>