<?xml version="1.0" encoding="utf-8"?>
<svg xmlns="http://www.w3.org/2000/svg" viewBox="0 0 24 24" width="384" height="384">
  <path d="M20,11h-1V5H5v6H4c-0.552,0-1,0.448-1,1v7.5C3,20.328,3.672,21,4.5,21S6,20.328,6,19.5C6,19.324,6,19,6,19h12c0,0,0,0.324,0,0.5c0,0.828,0.672,1.5,1.5,1.5s1.5-0.672,1.5-1.5V12C21,11.448,20.552,11,20,11z" opacity=".35" fill="#1E1E00" />
  <path d="M17,3H7C5.343,3,4,4.343,4,6c0,0.175,0,0.835,0,3v2h16V9c0-2.165,0-2.825,0-3C20,4.343,18.657,3,17,3z M16,9H8V7.5C8,6.672,8.672,6,9.5,6h5C15.328,6,16,6.672,16,7.5V9z" fill="#1E1E00" />
</svg>