<?xml version="1.0" encoding="utf-8"?>
<svg xmlns="http://www.w3.org/2000/svg" viewBox="0 0 128 128" width="512" height="512">
  <path fill="#FFF" d="M88.1,106H39.9C30,106,22,98,22,88.1V39.9C22,30,30,22,39.9,22h48.3C98,22,106,30,106,39.9v48.3C106,98,98,106,88.1,106z" />
  <path fill="#454B54" d="M88.1,109H39.9C28.4,109,19,99.6,19,88.1V39.9C19,28.4,28.4,19,39.9,19h48.3c11.5,0,20.9,9.4,20.9,20.9v48.3C109,99.6,99.6,109,88.1,109z M39.9,25C31.7,25,25,31.7,25,39.9v48.3c0,8.2,6.7,14.9,14.9,14.9h48.3c8.2,0,14.9-6.7,14.9-14.9V39.9c0-8.2-6.7-14.9-14.9-14.9H39.9z" />
  <path fill="#454B54" d="M64,67c-1.7,0-3-1.3-3-3V34c0-1.7,1.3-3,3-3s3,1.3,3,3v30C67,65.7,65.7,67,64,67z" />
  <path fill="#454B54" d="M84,67H64c-1.7,0-3-1.3-3-3s1.3-3,3-3h20c1.7,0,3,1.3,3,3S85.7,67,84,67z" />
  <path fill="#FFFFFF" d="M69,92H59c-1.7,0-3-1.3-3-3s1.3-3,3-3h10c1.7,0,3,1.3,3,3S70.7,92,69,92z" />
  <g>
    <path fill="#454B54" d="M64 58A6 6 0 1 0 64 70A6 6 0 1 0 64 58Z" />
  </g>
</svg>