<?xml version="1.0" encoding="utf-8"?>
<svg xmlns="http://www.w3.org/2000/svg" viewBox="0 0 24 24" width="384" height="384">
  <path d="M20,21H4c-1.105,0-2-0.895-2-2v-2c2,0,3,1,5,1s3-1,5-1s3,1,5,1s3-1,5-1v2C22,20.105,21.105,21,20,21z" fill="#1E1E00" />
  <path d="M19,3c-1.654,0-3,1.346-3,3v1c0,0.552-0.448,1-1,1H9C8.448,8,8,7.552,8,7V6c0-0.547,0.439-1.007,0.986-1C9.545,5.007,10,4.557,10,4c0-0.553-0.447-1-1-1C7.346,3,6,4.346,6,6v12.5c0,0.553,0.447,1,1,1s1-0.447,1-1V16c0-0.552,0.448-1,1-1h6c0.552,0,1,0.448,1,1v2.5c0,0.553,0.447,1,1,1s1-0.447,1-1V6c0-0.547,0.439-1.007,0.986-1C19.545,5.007,20,4.557,20,4C20,3.447,19.553,3,19,3z M8,12v-1c0-0.552,0.448-1,1-1h6c0.552,0,1,0.448,1,1v1c0,0.552-0.448,1-1,1H9C8.448,13,8,12.552,8,12z" opacity=".35" fill="#1E1E00" />
</svg>