<?xml version="1.0" encoding="utf-8"?>
<svg xmlns="http://www.w3.org/2000/svg" viewBox="0 0 128 128" width="512" height="512">
  <path d="M44 1C20.3 1 1 20.3 1 44C1 67.7 20.3 87 44 87L84 87C85.2 87 86.300781 86.299219 86.800781 85.199219C87.300781 84.099219 86.999219 82.800391 86.199219 81.900391L76.599609 72C83.299609 64.2 87 54.4 87 44C87 20.3 67.7 1 44 1 z M 29 34L59 34C60.7 34 62 35.3 62 37C62 38.7 60.7 40 59 40L29 40C27.3 40 26 38.7 26 37C26 35.3 27.3 34 29 34 z M 95.601562 42.777344C94.425 42.894531 93.375 43.700391 93 44.900391C92.5 46.500391 93.4 48.199219 95 48.699219C110.5 53.499219 121 67.7 121 84C121 104.4 104.4 121 84 121L51.099609 121L57.699219 114.19922C58.799219 112.99922 58.799219 111.2 57.699219 110C53.599219 105.8 50.499219 100.69961 48.699219 95.099609C48.199219 93.499609 46.500391 92.599609 44.900391 93.099609C43.300391 93.599609 42.400391 95.300391 42.900391 96.900391C44.600391 102.40039 47.500781 107.6 51.300781 112L41.800781 121.90039C41.000781 122.80039 40.699219 123.99922 41.199219 125.19922C41.699219 126.29922 42.8 127 44 127L84 127C107.7 127 127 107.7 127 84C127 65.1 114.90078 48.600391 96.800781 42.900391C96.400781 42.775391 95.99375 42.738281 95.601562 42.777344 z M 29 49L39 49C40.7 49 42 50.3 42 52C42 53.7 40.7 55 39 55L29 55C27.3 55 26 53.7 26 52C26 50.3 27.3 49 29 49 z M 55 49L59 49C60.7 49 62 50.3 62 52C62 53.7 60.7 55 59 55L55 55C53.3 55 52 53.7 52 52C52 50.3 53.3 49 55 49 z" fill="#990062DD" />
</svg>