<?xml version="1.0" encoding="utf-8"?>
<svg xmlns="http://www.w3.org/2000/svg" viewBox="0 0 24 24" width="384" height="384">
  <path d="M19.943,6.475c0,1.074-0.796,1.495-1.501,1.495c-0.665,0-1.064-0.275-1.295-0.597c-0.199-0.278-0.046-0.67,0.285-0.755h0 c0.205-0.052,0.412,0.038,0.534,0.211c0.083,0.118,0.216,0.219,0.429,0.219c0.412,0,0.505-0.425,0.505-0.619 c0-0.434-0.274-0.606-0.653-0.606h-0.008c-0.219,0-0.397-0.178-0.397-0.397v0c0-0.219,0.178-0.397,0.397-0.397h0.035 c0.18,0,0.559-0.063,0.559-0.6c0-0.134-0.055-0.505-0.438-0.505c-0.165,0-0.272,0.08-0.343,0.177 c-0.11,0.151-0.29,0.232-0.471,0.188l-0.061-0.015c-0.296-0.073-0.437-0.423-0.261-0.672C17.47,3.3,17.839,3,18.468,3 c0.796,0,1.38,0.52,1.38,1.294c0,0.654-0.354,1.002-0.653,1.084v0.02C19.452,5.453,19.943,5.771,19.943,6.475z" fill="#1E1E00" />
  <circle cx="18.5" cy="5.5" r="3.5" opacity=".35" fill="#1E1E00" />
  <path d="M20.5,21L20.5,21c0.828,0,1.5-0.672,1.5-1.5V15H5V7.5C5,6.672,4.328,6,3.5,6S2,6.672,2,7.5v12C2,20.328,2.672,21,3.5,21S5,20.328,5,19.5V19h14v0.5C19,20.328,19.672,21,20.5,21z" opacity=".35" fill="#1E1E00" />
  <path d="M20,11h-9c0-1.657-1.343-3-3-3H5v3v4h17v-2C22,11.895,21.105,11,20,11z" fill="#1E1E00" />
</svg>