<?xml version="1.0" encoding="utf-8"?>
<svg xmlns="http://www.w3.org/2000/svg" data-name="Слой 1" viewBox="0 0 24 24" width="384" height="384">
  <rect width="16" height="3" x="4" y="12" rx="1.5" fill="#1E1E00" />
  <path d="M5,13v1a6.987,6.987,0,0,0,3,5.74V21a1,1,0,0,0,1,1h6a1,1,0,0,0,1-1V19.74A6.987,6.987,0,0,0,19,14V13Z" opacity=".35" fill="#1E1E00" />
  <path d="M19,2.5A1.5,1.5,0,0,0,17.5,1H6.5A1.5,1.5,0,0,0,6,3.908V8a2,2,0,0,0,2,2H9v2h6V10h1a2,2,0,0,0,2-2V3.908A1.5,1.5,0,0,0,19,2.5Z" opacity=".35" fill="#1E1E00" />
  <rect width="3" height="2" x="8" y="4" rx="1" fill="#1E1E00" />
</svg>