<?xml version="1.0" encoding="utf-8"?>
<svg xmlns="http://www.w3.org/2000/svg" viewBox="0 0 24 24" width="384" height="384">
  <path d="M21.16,8.013c-0.479-0.076-0.953,0.206-1.108,0.671L18,15H8v6c0,0.347,0.18,0.668,0.475,0.851c0.294,0.182,0.662,0.197,0.973,0.044l1.105-0.553c0.282-0.141,0.613-0.141,0.895,0l1.105,0.553c0.013,0.006,0.027,0.004,0.04,0.009c0.125,0.056,0.255,0.09,0.39,0.092c0.018,0,0.035-0.004,0.053-0.004c0.141-0.005,0.281-0.033,0.411-0.097l1.105-0.553c0.282-0.141,0.613-0.141,0.895,0l1.105,0.553C16.694,21.965,16.847,22,17.001,22c0.138,0,0.272-0.038,0.4-0.094c0.015-0.007,0.032-0.004,0.047-0.011l1.105-0.553c0.282-0.141,0.613-0.141,0.895,0l1.105,0.553C20.694,21.965,20.847,22,21,22c0.183,0,0.365-0.05,0.525-0.149C21.82,21.668,22,21.347,22,21V9C22,8.51,21.645,8.091,21.16,8.013z" fill="#1E1E00" />
  <path d="M18,3H6C3.791,3,2,5.686,2,9c0,3.314,1.791,6,4,6h12l2-7L18,3z" opacity=".35" fill="#1E1E00" />
  <path d="M18,3c-2.209,0-4,2.686-4,6c0,3.314,1.791,6,4,6s4-2.686,4-6C22,5.686,20.209,3,18,3z M18,11c-0.552,0-1-0.895-1-2c0-1.105,0.448-2,1-2s1,0.895,1,2C19,10.105,18.552,11,18,11z" fill="#1E1E00" />
</svg>