<?xml version="1.0" encoding="utf-8"?>
<svg xmlns="http://www.w3.org/2000/svg" viewBox="0 0 24 24" width="384" height="384">
  <path d="M18.727,7.082C17.893,4.15,15.2,2,12,2C8.358,2,5.368,4.782,5.034,8.336C2.687,9.151,1,11.376,1,14c0,3.314,2.686,6,6,6h8 c3.866,0,7-3.134,7-7C22,10.506,20.691,8.322,18.727,7.082z" opacity=".35" fill="#1E1E00" />
  <path d="M16.784,12.219c-0.267-0.291-0.719-0.31-1.01-0.043l-2.63,2.416L12.755,6.72c-0.02-0.383-0.327-0.699-0.718-0.718c-0.417-0.021-0.772,0.301-0.793,0.718l-0.25,5.064L8.007,9.152c-0.226-0.199-0.57-0.204-0.801,0c-0.251,0.221-0.275,0.604-0.054,0.855l3.721,4.224l-0.357,7.229c-0.002,0.048-0.002,0.098,0,0.147c0.041,0.82,0.738,1.451,1.557,1.411c0.82-0.041,1.451-0.738,1.411-1.557l-0.216-4.374l3.521-3.905C17.031,12.91,17.036,12.492,16.784,12.219z" fill="#1E1E00" />
</svg>