<?xml version="1.0" encoding="utf-8"?>
<svg xmlns="http://www.w3.org/2000/svg" viewBox="0 0 24 24" width="384" height="384">
  <path d="M19,4.423c0,0.848-0.579,1.318-1.613,2.541h1.084c0.258,0,0.468,0.209,0.468,0.468v0c0,0.258-0.209,0.468-0.468,0.468h-1.67c-0.388,0-0.702-0.314-0.702-0.702v0c0-0.168,0.06-0.331,0.17-0.458c1.188-1.38,1.667-1.776,1.667-2.303c0-0.14-0.029-0.508-0.406-0.508c-0.216,0-0.336,0.137-0.403,0.292c-0.085,0.196-0.291,0.311-0.504,0.291l0,0c-0.338-0.031-0.561-0.386-0.421-0.695C16.392,3.398,16.779,3,17.563,3C18.713,3,19,3.86,19,4.423z" fill="#1E1E00" />
  <path d="M20.5,21L20.5,21c0.828,0,1.5-0.672,1.5-1.5V15H5V7.5C5,6.672,4.328,6,3.5,6S2,6.672,2,7.5v12C2,20.328,2.672,21,3.5,21S5,20.328,5,19.5V19h14v0.5C19,20.328,19.672,21,20.5,21z" opacity=".35" fill="#1E1E00" />
  <path d="M20,11h-9c0-1.657-1.343-3-3-3H5v7h17v-2C22,11.895,21.105,11,20,11z" fill="#1E1E00" />
  <circle cx="17.5" cy="5.5" r="3.5" opacity=".35" fill="#1E1E00" />
</svg>