<?xml version="1.0" encoding="utf-8"?>
<svg xmlns="http://www.w3.org/2000/svg" viewBox="0 0 24 24" width="192" height="192">
  <circle cx="19" cy="19" r="5" opacity=".35" fill="#1E1E00" />
  <circle cx="12" cy="7" r="5" opacity=".35" fill="#1E1E00" />
  <path d="M18,21.5v-5c0-0.552,0.448-1,1-1h0c0.552,0,1,0.448,1,1v5c0,0.552-0.448,1-1,1h0C18.448,22.5,18,22.052,18,21.5z" fill="#1E1E00" />
  <path d="M16.5,18h5c0.552,0,1,0.448,1,1v0c0,0.552-0.448,1-1,1h-5c-0.552,0-1-0.448-1-1v0C15.5,18.448,15.948,18,16.5,18z" fill="#1E1E00" />
  <path d="M14,19c0-1.643,0.804-3.089,2.027-4H6c-1.657,0-3,1.343-3,3c0,1.657,1.343,3,3,3h8.422C14.154,20.387,14,19.712,14,19z" fill="#1E1E00" />
</svg>