<?xml version="1.0" encoding="utf-8"?>
<svg xmlns="http://www.w3.org/2000/svg" viewBox="0 0 24 24" width="384" height="384">
  <path d="M21.947,7.974c0.057-1.01-0.652-1.937-1.651-2.102C16.145,5.189,16.464,2,12,2S7.855,5.189,3.704,5.872C2.705,6.036,1.996,6.963,2.053,7.974C2.481,15.604,5.534,19.229,12,22C18.466,19.229,21.519,15.604,21.947,7.974z" opacity=".35" fill="#1E1E00" />
  <circle cx="12" cy="9" r="2" fill="#1E1E00" />
  <path d="M9.5,13h5c0.828,0,1.5,0.672,1.5,1.5l0,0c0,0.828-0.672,1.5-1.5,1.5h-5C8.672,16,8,15.328,8,14.5l0,0C8,13.672,8.672,13,9.5,13z" fill="#1E1E00" />
</svg>