<?xml version="1.0" encoding="utf-8"?>
<svg xmlns="http://www.w3.org/2000/svg" data-name="Слой 1" viewBox="0 0 24 24" width="384" height="384">
  <path d="M12.584,15.585l-3.326-2A4.132,4.132,0,0,0,3,17.133,9.016,9.016,0,0,0,4.5,21h6.584a2.915,2.915,0,0,0,1.5-5.415Z" opacity=".35" fill="#1E1E00" />
  <circle cx="4.5" cy="18.5" r="2.5" fill="#1E1E00" />
  <path d="M20.5,21h-3a1.5,1.5,0,0,1,0-3h3a1.5,1.5,0,0,1,0,3Z" fill="#1E1E00" />
  <path d="M20.267,18.661,16.437,8.037a3.974,3.974,0,0,0-2.514-2.444L6.357,3.105A2.605,2.605,0,0,0,4.773,8.068L8.365,9.315a1,1,0,0,1,.6,1.206L7.8,13.059a4.116,4.116,0,0,1,1.462.53l.389.233,1.165-2.52a1.02,1.02,0,0,0,.041-.1,3,3,0,0,0-1.8-3.76L5.417,6.176a.606.606,0,0,1-.382-.766.593.593,0,0,1,.722-.4L13.3,7.493a1.989,1.989,0,0,1,1.256,1.222l3.83,10.624a1,1,0,0,0,.941.661.986.986,0,0,0,.339-.06A1,1,0,0,0,20.267,18.661Z" fill="#1E1E00" />
</svg>