<?xml version="1.0" encoding="utf-8"?>
<svg xmlns="http://www.w3.org/2000/svg" viewBox="0 0 100 100" width="500" height="500">
  <path fill="#ee3e54" d="M13 27A2 2 0 1 0 13 31A2 2 0 1 0 13 27Z" />
  <path fill="#f1bc19" d="M77 12A1 1 0 1 0 77 14A1 1 0 1 0 77 12Z" />
  <path fill="#fce0a2" d="M50 13A37 37 0 1 0 50 87A37 37 0 1 0 50 13Z" />
  <path fill="#f1bc19" d="M83 11A4 4 0 1 0 83 19A4 4 0 1 0 83 11Z" />
  <path fill="#ee3e54" d="M87 22A2 2 0 1 0 87 26A2 2 0 1 0 87 22Z" />
  <path fill="#fbcd59" d="M81 74A2 2 0 1 0 81 78 2 2 0 1 0 81 74zM15 59A4 4 0 1 0 15 67 4 4 0 1 0 15 59z" />
  <path fill="#ee3e54" d="M25 85A2 2 0 1 0 25 89A2 2 0 1 0 25 85Z" />
  <path fill="#fff" d="M18.5 51A2.5 2.5 0 1 0 18.5 56A2.5 2.5 0 1 0 18.5 51Z" />
  <path fill="#f1bc19" d="M21 66A1 1 0 1 0 21 68A1 1 0 1 0 21 66Z" />
  <path fill="#fff" d="M80 33A1 1 0 1 0 80 35A1 1 0 1 0 80 33Z" />
  <path fill="#bb7a54" d="M50,23c-6.714,0-13.5,3.5-16.694,8.833c0.77,0.765,2.777,1.18,3.804,1.18 c0.901,0,1.807-0.303,2.554-0.924C42.839,29.452,45.865,28,50,28c4.113,0,7.123,1.439,10.289,4.052 c1.604,1.323,4.92,1.169,6.36-0.271C62.5,26.5,56.689,23,50,23z" />
  <path fill="#472b29" d="M37.11,33.514c-0.984,0-3.214-0.389-4.157-1.325c-0.163-0.162-0.194-0.414-0.077-0.611 C36.128,26.147,43.009,22.5,50,22.5c6.444,0,12.497,3.187,17.042,8.973c0.156,0.199,0.14,0.483-0.04,0.662 c-1.625,1.624-5.24,1.78-7.032,0.303C56.581,29.641,53.692,28.5,50,28.5c-3.716,0-6.618,1.151-10.016,3.975 C39.178,33.145,38.157,33.514,37.11,33.514z M33.967,31.717c0.795,0.493,2.29,0.797,3.143,0.797c0.814,0,1.607-0.287,2.234-0.809 C42.893,28.758,46.08,27.5,50,27.5c3.896,0,7.067,1.246,10.607,4.166c1.281,1.058,3.943,1.034,5.347,0.047 C61.639,26.412,55.99,23.5,50,23.5C43.511,23.5,37.132,26.785,33.967,31.717z" />
  <path fill="#472b29" d="M69.751,47.45c-0.033,0-0.066-0.002-0.1-0.007c-0.382-0.055-0.648-0.409-0.594-0.792 c0.161-1.132,0.227-4.259,0.192-5.378C68.941,31.255,60.666,23.7,50,23.7c-10.411,0-18.677,7.349-19.229,17.094 c-0.07,1.238-0.017,3.537,0.172,4.857c0.055,0.382-0.211,0.737-0.594,0.792c-0.381,0.04-0.738-0.212-0.792-0.595 c-0.204-1.422-0.259-3.803-0.184-5.135C29.967,30.217,38.835,22.3,50,22.3c11.44,0,20.317,8.139,20.649,18.931 c0.035,1.145-0.029,4.377-0.206,5.618C70.393,47.198,70.094,47.45,69.751,47.45z" />
  <path fill="#bb7a54" d="M64.25,66.3c-1.406,0-2.55-1.144-2.55-2.55v-16c0-1.406,1.144-2.55,2.55-2.55s2.55,1.144,2.55,2.55 v16C66.8,65.156,65.656,66.3,64.25,66.3z" />
  <path fill="#472b29" d="M64.25,45.9c1.02,0,1.85,0.83,1.85,1.85v16c0,1.02-0.83,1.85-1.85,1.85s-1.85-0.83-1.85-1.85v-16 C62.4,46.73,63.23,45.9,64.25,45.9 M64.25,44.5c-1.787,0-3.25,1.462-3.25,3.25v16c0,1.788,1.463,3.25,3.25,3.25 s3.25-1.462,3.25-3.25v-16C67.5,45.962,66.037,44.5,64.25,44.5L64.25,44.5z" />
  <path fill="#bb7a54" d="M49,76.3c-1.268,0-2.3-1.031-2.3-2.3s1.032-2.3,2.3-2.3h2c1.268,0,2.3,1.031,2.3,2.3 s-1.032,2.3-2.3,2.3H49z" />
  <path fill="#472b29" d="M51,72.4c0.882,0,1.6,0.718,1.6,1.6s-0.718,1.6-1.6,1.6h-2c-0.882,0-1.6-0.718-1.6-1.6 s0.718-1.6,1.6-1.6H51 M51,71h-2c-1.65,0-3,1.35-3,3s1.35,3,3,3h2c1.65,0,3-1.35,3-3S52.65,71,51,71L51,71z" />
  <g>
    <path fill="#39c2d8" d="M66.7,65.3V46.7h1.816c3.74,0,6.783,3.043,6.783,6.783v5.033c0,3.74-3.043,6.783-6.783,6.783H66.7z" />
    <path fill="#472b29" d="M68.517,47.4c3.354,0,6.083,2.729,6.083,6.083v5.033c0,3.354-2.729,6.083-6.083,6.083H67.4V47.4 H68.517 M68.517,46H66v20h2.517C72.65,66,76,62.649,76,58.517v-5.033C76,49.351,72.65,46,68.517,46L68.517,46z" />
  </g>
  <g>
    <path fill="#472b29" d="M68.681,63.125c-0.138,0-0.25-0.112-0.25-0.25s0.112-0.25,0.25-0.25 c2.167,0,3.929-1.763,3.929-3.929v-3.588c0-0.138,0.112-0.25,0.25-0.25s0.25,0.112,0.25,0.25v3.588 C73.11,61.139,71.123,63.125,68.681,63.125z" />
  </g>
  <g>
    <path fill="#472b29" d="M70.748,50.046c-0.042,0-0.085-0.011-0.124-0.033c-0.588-0.335-1.26-0.513-1.942-0.513 c-0.138,0-0.25-0.112-0.25-0.25S68.543,49,68.681,49c0.769,0,1.527,0.2,2.19,0.579c0.12,0.068,0.162,0.221,0.093,0.341 C70.918,50.001,70.834,50.046,70.748,50.046z" />
  </g>
  <g>
    <path fill="#bb7a54" d="M35.75,66.3c-1.406,0-2.55-1.144-2.55-2.55v-16c0-1.406,1.144-2.55,2.55-2.55s2.55,1.144,2.55,2.55 v16C38.3,65.156,37.156,66.3,35.75,66.3z" />
    <path fill="#472b29" d="M35.75,45.9c1.02,0,1.85,0.83,1.85,1.85v16c0,1.02-0.83,1.85-1.85,1.85s-1.85-0.83-1.85-1.85v-16 C33.9,46.73,34.73,45.9,35.75,45.9 M35.75,44.5c-1.787,0-3.25,1.462-3.25,3.25v16c0,1.788,1.463,3.25,3.25,3.25 S39,65.538,39,63.75v-16C39,45.962,37.537,44.5,35.75,44.5L35.75,44.5z" />
  </g>
  <g>
    <path fill="#39c2d8" d="M31.483,64.8c-3.74,0-6.783-3.043-6.783-6.783v-5.033c0-3.74,3.043-6.783,6.783-6.783H33.3v18.6 H31.483z" />
    <path fill="#472b29" d="M32.6,46.9v17.2h-1.117c-3.354,0-6.083-2.729-6.083-6.083v-5.033c0-3.354,2.729-6.083,6.083-6.083 H32.6 M34,45.5h-2.517C27.35,45.5,24,48.851,24,52.983v5.033c0,4.133,3.35,7.483,7.483,7.483H34V45.5L34,45.5z" />
  </g>
  <g>
    <path fill="#472b29" d="M64,74.5H53.5c-0.276,0-0.5-0.224-0.5-0.5s0.224-0.5,0.5-0.5h10v-7c0-0.276,0.224-0.5,0.5-0.5 s0.5,0.224,0.5,0.5V74C64.5,74.276,64.276,74.5,64,74.5z" />
  </g>
  <g>
    <path fill="#472b29" d="M27.223,58.446c-0.138,0-0.25-0.112-0.25-0.25v-3.588c0-0.138,0.112-0.25,0.25-0.25 s0.25,0.112,0.25,0.25v3.588C27.473,58.334,27.361,58.446,27.223,58.446z" />
  </g>
  <g>
    <path fill="#472b29" d="M27.223,53.179c-0.138,0-0.25-0.112-0.25-0.25c0-0.961,0.303-1.875,0.876-2.644 c0.082-0.11,0.24-0.131,0.35-0.051c0.111,0.082,0.133,0.239,0.051,0.35c-0.508,0.682-0.776,1.492-0.776,2.345 C27.473,53.066,27.361,53.179,27.223,53.179z" />
  </g>
  <g>
    <path fill="#472b29" d="M29.335,49.546c-0.086,0-0.171-0.045-0.217-0.126c-0.068-0.12-0.026-0.272,0.093-0.341 c0.664-0.379,1.421-0.579,2.191-0.579c0.138,0,0.25,0.112,0.25,0.25S31.54,49,31.402,49c-0.683,0-1.354,0.178-1.943,0.513 C29.42,49.535,29.377,49.546,29.335,49.546z" />
  </g>
  <g>
    <path fill="#472b29" d="M62.458,30.333c-0.056,0-0.112-0.019-0.158-0.057c-2.295-1.88-4.864-3.19-7.636-3.896 c-0.134-0.034-0.215-0.17-0.181-0.304c0.034-0.134,0.169-0.211,0.304-0.181c2.843,0.723,5.477,2.066,7.829,3.993 c0.107,0.088,0.123,0.245,0.035,0.352C62.603,30.302,62.531,30.333,62.458,30.333z" />
  </g>
  <g>
    <path fill="#472b29" d="M52.771,25.938c-0.014,0-0.027-0.001-0.041-0.003c-1.474-0.242-2.703-0.187-2.718-0.185 c-0.144,0.006-0.255-0.1-0.262-0.237c-0.007-0.138,0.099-0.256,0.237-0.263c0.053-0.002,1.297-0.06,2.824,0.19 c0.136,0.022,0.229,0.151,0.206,0.288C52.998,25.851,52.892,25.938,52.771,25.938z" />
  </g>
  <g>
    <path fill="#472b29" d="M72.86,53.679c-0.138,0-0.25-0.112-0.25-0.25c0-0.853-0.269-1.663-0.776-2.345 c-0.083-0.11-0.06-0.268,0.051-0.35c0.11-0.084,0.267-0.061,0.35,0.051c0.573,0.769,0.876,1.683,0.876,2.644 C73.11,53.566,72.998,53.679,72.86,53.679z" />
  </g>
</svg>