<?xml version="1.0" encoding="utf-8"?>
<svg xmlns="http://www.w3.org/2000/svg" viewBox="0 0 100 100" width="500" height="500">
  <circle cx="79" cy="14" r="1" fill="#f1bc19" />
  <circle cx="50" cy="51" r="37" fill="#c0e5e4" />
  <circle cx="85" cy="16" r="4" fill="#f1bc19" />
  <circle cx="13" cy="30" r="2" fill="#00a5a5" />
  <circle cx="80" cy="79" r="2" fill="#fbcd59" />
  <circle cx="26" cy="77" r="4" fill="#fbcd59" />
  <circle cx="27" cy="88" r="2" fill="#00a5a5" />
  <circle cx="58.5" cy="86.5" r="2.5" fill="#fff" />
  <circle cx="23.029" cy="69.971" r=".971" fill="#fff" />
  <circle cx="85" cy="32" r="1" fill="#f1bc19" />
  <circle cx="78" cy="69" r="2" fill="#fff" />
  <circle cx="79" cy="35" r="1" fill="#fff" />
  <path fill="#c5def0" d="M70,49.5H39.254v-1.121c0-5.523,4.477-10,10-10H60c5.523,0,10,4.477,10,10V49.5z" />
  <path fill="#78a0cf" d="M58.315,77H48.46c-3.059,0-5.629-2.302-5.964-5.343l-4.055-24.166L39,44h30l0.353,6.255L66,73 C64.851,77.957,61.069,77,58.315,77z" />
  <path fill="#e1e0d8" d="M61,39H48v0c0-2.761,2.239-5,5-5h3C58.761,34,61,36.239,61,39L61,39z" />
  <path fill="#e1e0d8" d="M56,27h-3c-2.761,0-5-2.239-5-5v-1h13v1C61,24.761,58.761,27,56,27z" />
  <rect width="5" height="9" x="52" y="26" fill="#cbc9bc" />
  <path fill="#78a0cf" d="M41.5,35.5c0.333,1.623-1.343,3-3,3s-3.333-1.377-3-3c0.383-1.865,3-7,3-7S41.117,33.635,41.5,35.5z" />
  <path fill="#f6cca4" d="M57.749,49.964L57.749,49.964C57.026,49,54.5,49.299,54.5,49.299L42.992,55.59l-3.194-1.687 c1.798-1.097-0.298-4.604-0.298-4.604l-6.912-3.677c-4.23-1.813-8.995-1.937-13.313-0.346L16.5,46.299l0.5,10.5l6.5-2.5 l15.648,7.364c0.851,0.401,1.841,0.379,2.674-0.059l15.099-7.939C58.275,52.948,58.668,51.19,57.749,49.964z" />
  <path fill="#472b29" d="M39.499,50.2c-0.11,0-0.223-0.026-0.328-0.082l-6.912-3.677c-4.028-1.725-8.572-1.842-12.742-0.307 l-2.774,1.022c-0.364,0.135-0.766-0.052-0.899-0.415c-0.133-0.363,0.053-0.766,0.415-0.899l2.774-1.022 c4.505-1.661,9.417-1.533,13.831,0.358l6.966,3.702c0.341,0.182,0.471,0.605,0.289,0.947C39.992,50.065,39.75,50.2,39.499,50.2z" />
  <path fill="#472b29" d="M30.531,52.124c-0.098,0-0.195-0.02-0.29-0.063l-2.031-0.923c-0.352-0.16-0.507-0.575-0.348-0.927 c0.161-0.354,0.574-0.509,0.928-0.348l2.031,0.923c0.352,0.16,0.507,0.575,0.348,0.927C31.051,51.971,30.797,52.124,30.531,52.124z" />
  <path fill="#472b29" d="M64.5,44.5h-2c-0.138,0-0.25-0.112-0.25-0.25S62.362,44,62.5,44h2c0.138,0,0.25,0.112,0.25,0.25 S64.638,44.5,64.5,44.5z" />
  <path fill="#472b29" d="M38.5,39.2c-1.163,0-2.333-0.548-3.053-1.431c-0.581-0.712-0.806-1.568-0.633-2.41 c0.397-1.936,2.953-6.964,3.062-7.177c0.24-0.469,1.008-0.469,1.248,0c0.108,0.213,2.664,5.241,3.062,7.177l0,0 c0.173,0.842-0.052,1.698-0.633,2.41C40.833,38.652,39.663,39.2,38.5,39.2z M38.5,30.075c-0.865,1.783-2.082,4.435-2.314,5.565 c-0.11,0.541,0.127,0.975,0.347,1.244C36.986,37.44,37.759,37.8,38.5,37.8s1.514-0.359,1.968-0.916 c0.22-0.269,0.457-0.703,0.347-1.244C40.582,34.51,39.365,31.858,38.5,30.075z" />
  <path fill="#472b29" d="M69.5,44.5h-3c-0.138,0-0.25-0.112-0.25-0.25S66.362,44,66.5,44h3c0.138,0,0.25,0.112,0.25,0.25 S69.638,44.5,69.5,44.5z" />
  <path fill="#f15b6c" d="M59.5,63.5h-3v-3c0-0.552-0.448-1-1-1h-1c-0.552,0-1,0.448-1,1v3h-3c-0.552,0-1,0.448-1,1v1 c0,0.552,0.448,1,1,1h3v3c0,0.552,0.448,1,1,1h1c0.552,0,1-0.448,1-1v-3h3c0.552,0,1-0.448,1-1v-1 C60.5,63.948,60.052,63.5,59.5,63.5z" />
  <path fill="#472b29" d="M55.5,71h-1c-0.827,0-1.5-0.673-1.5-1.5V67h-2.5c-0.827,0-1.5-0.673-1.5-1.5v-1 c0-0.827,0.673-1.5,1.5-1.5H53v-2.5c0-0.827,0.673-1.5,1.5-1.5h1c0.827,0,1.5,0.673,1.5,1.5V63h2.5c0.827,0,1.5,0.673,1.5,1.5v1 c0,0.827-0.673,1.5-1.5,1.5H57v2.5C57,70.327,56.327,71,55.5,71z M50.5,64c-0.275,0-0.5,0.224-0.5,0.5v1c0,0.276,0.225,0.5,0.5,0.5 h3c0.276,0,0.5,0.224,0.5,0.5v3c0,0.276,0.225,0.5,0.5,0.5h1c0.275,0,0.5-0.224,0.5-0.5v-3c0-0.276,0.224-0.5,0.5-0.5h3 c0.275,0,0.5-0.224,0.5-0.5v-1c0-0.276-0.225-0.5-0.5-0.5h-3c-0.276,0-0.5-0.224-0.5-0.5v-3c0-0.276-0.225-0.5-0.5-0.5h-1 c-0.275,0-0.5,0.224-0.5,0.5v3c0,0.276-0.224,0.5-0.5,0.5H50.5z" />
  <path fill="#472b29" d="M68.067,41.658l-2.678-2.143c-1.2-0.959-2.666-1.545-4.189-1.683V37.5c0-1.801-1.294-3.306-3-3.634v-6.732c1.706-0.328,3-1.833,3-3.634v-2.3h1.3c0.387,0,0.7-0.313,0.7-0.7s-0.313-0.7-0.7-0.7h-2h-12h-6c-2.592,0-4.7,2.108-4.7,4.7c0,0.387,0.313,0.7,0.7,0.7s0.7-0.313,0.7-0.7c0-1.82,1.48-3.3,3.3-3.3h5.3v2.3c0,1.801,1.294,3.306,3,3.634v6.732c-1.706,0.328-3,1.833-3,3.634v0.332c-1.523,0.138-2.989,0.724-4.189,1.684l-2.541,2.033c-1.801,1.441-3.484,3.918-3.367,6.274l-6.55-3.269c-0.348-0.173-0.767-0.031-0.938,0.314c-0.173,0.346-0.032,0.766,0.313,0.939l8.405,4.195c0.94,0.469,1.372,1.602,0.982,2.578c-0.209,0.522-0.611,0.924-1.133,1.134c-0.521,0.21-1.089,0.197-1.601-0.036l-4.485-2.039c-0.354-0.16-0.767-0.006-0.928,0.348c-0.159,0.352-0.004,0.767,0.348,0.927l4.486,2.039c0.455,0.207,0.937,0.311,1.42,0.311c0.433,0,0.866-0.083,1.281-0.25c0.194-0.078,0.374-0.178,0.547-0.286L42.14,56.1c0.205,0.124,0.457,0.132,0.674,0.026l12.139-6.069c0.777-0.388,1.717-0.165,2.236,0.528c0.315,0.42,0.431,0.956,0.315,1.469c-0.114,0.513-0.446,0.948-0.909,1.192l-15.099,7.939c-0.634,0.333-1.401,0.351-2.05,0.045l-15.648-7.364c-0.172-0.082-0.371-0.089-0.549-0.02l-6.5,2.5c-0.361,0.139-0.541,0.544-0.402,0.905c0.14,0.361,0.546,0.538,0.904,0.402l6.222-2.393l15.378,7.236c0.496,0.234,1.035,0.35,1.574,0.35c0.175,0,0.347-0.038,0.521-0.063l0.7,9.122c0.267,3.477,3.197,6.188,6.68,6.188c0.012,0,0.022,0,0.034,0l12.522-0.062c3.361-0.017,6.206-2.545,6.616-5.88l2.946-23.912C70.955,45.762,70.044,43.239,68.067,41.658z M49.2,23.5v-2.3h10.6v2.3c0,1.106-0.785,2.031-1.827,2.25h-6.945C49.985,25.531,49.2,24.606,49.2,23.5z M56.85,34.75H52.15c0.03-0.078,0.051-0.161,0.051-0.25v-8c0-0.089-0.02-0.172-0.05-0.25h4.701c-0.03,0.078-0.051,0.161-0.051,0.25v8C56.8,34.589,56.82,34.672,56.85,34.75z M49.2,38.5v-1c0-1.106,0.785-2.031,1.827-2.25h6.945c1.042,0.219,1.827,1.144,1.827,2.25v1c0,0.089,0.02,0.172,0.051,0.25H49.15C49.18,38.672,49.2,38.589,49.2,38.5z M69.064,48.014l-2.955,23.968c-0.325,2.638-2.576,4.638-5.235,4.651l-12.522,0.062c-0.009,0-0.017,0-0.026,0c-2.754,0-5.073-2.146-5.283-4.896l-0.726-9.464l14.932-7.852c0.827-0.438,1.418-1.212,1.622-2.125c0.205-0.913,0-1.866-0.562-2.615c-0.926-1.235-2.603-1.631-3.983-0.94L42.53,54.702l-1.639-0.983c0.127-0.193,0.235-0.4,0.323-0.62c0.658-1.647-0.069-3.559-1.657-4.351l-0.368-0.184c0.007-0.077,0.009-0.156-0.011-0.235c-0.302-1.205,0.196-2.609,1.041-3.83H60.5c0.138,0,0.25-0.112,0.25-0.25S60.638,44,60.5,44H40.598c0.408-0.508,0.865-0.974,1.346-1.359l2.541-2.033c0.982-0.786,2.184-1.243,3.431-1.358h13.167c1.247,0.115,2.449,0.573,3.431,1.358l2.678,2.143C68.757,44.002,69.478,45.997,69.064,48.014z" />
</svg>