<?xml version="1.0" encoding="utf-8"?>
<svg xmlns="http://www.w3.org/2000/svg" viewBox="0 0 26 26" width="208" height="208">
  <path d="M12.1875 -0.03125C10.472656 -0.03125 9.097656 1.3125 9 3L5 3C4.398438 3 4 3.398438 4 4L3.59375 4C2.695313 4 2 4.695313 2 5.59375L2 6L24 6L24 5.59375C24 4.695313 23.304688 4 22.40625 4L22 4C22 3.398438 21.601563 3 21 3L17 3C16.902344 1.3125 15.527344 -0.03125 13.8125 -0.03125 Z M 12.1875 2.03125L13.8125 2.03125C14.367188 2.03125 14.839844 2.464844 14.9375 3L11.0625 3C11.160156 2.464844 11.632813 2.03125 12.1875 2.03125 Z M 3.09375 7L6 26L20 26L22.90625 7 Z M 5.90625 10L7 10L8.6875 23L7.6875 23 Z M 10.1875 10L11.3125 10L12 23L10.8125 23 Z M 14.6875 10L15.8125 10L15.1875 23L14.09375 23 Z M 19 10L20 10L18.3125 23L17.3125 23Z" fill="#FFFFFF" />
</svg>