<?xml version="1.0" encoding="utf-8"?>
<svg xmlns="http://www.w3.org/2000/svg" viewBox="0 0 128 128" width="512" height="512">
  <path d="M79.9 83.8C74.8 82 69.5 81 64 81c0 0 0 0 0 0s0 0 0 0c-16.4 0-31.6 8.9-39.7 23.1-.8 1.4-.3 3.3 1.1 4.1.5.3 1 .4 1.5.4 1 0 2.1-.5 2.6-1.5C36.6 94.7 49.8 87 64 87c0 0 0 0 0 0s0 0 0 0c4.7 0 9.4.8 13.8 2.5.3.1.7.2 1 .2 1.2 0 2.4-.7 2.8-2C82.2 86.1 81.4 84.4 79.9 83.8zM64 27c-12.7 0-23 10.3-23 23s10.3 23 23 23 23-10.3 23-23S76.7 27 64 27zM64 67c-9.4 0-17-7.6-17-17s7.6-17 17-17c9.4 0 17 7.6 17 17S73.4 67 64 67zM91.9 91.9c-7.8 7.8-7.8 20.5 0 28.3 7.8 7.8 20.5 7.8 28.3 0 7.8-7.8 7.8-20.5 0-28.3C112.3 84 99.7 84 91.9 91.9zM112.9 109h-4v4c0 1.7-1.3 3-3 3s-3-1.3-3-3v-4h-4c-1.7 0-3-1.3-3-3s1.3-3 3-3h4v-4c0-1.7 1.3-3 3-3s3 1.3 3 3v4h4c1.7 0 3 1.3 3 3S114.6 109 112.9 109z" opacity="1" fill="#BFC6DC" />
</svg>