<?xml version="1.0" encoding="utf-8"?>
<svg xmlns="http://www.w3.org/2000/svg" viewBox="0 0 32 32" width="512" height="512">
  <path d="M18.189453 1.7929688L16.775391 3.2070312L20.482422 6.9140625L24.189453 3.2070312L22.775391 1.7929688L20.482422 4.0859375L18.189453 1.7929688 z M 11.482422 2L7.7753906 5.7070312L9.1894531 7.1210938L11.482422 4.828125L13.775391 7.1210938L15.189453 5.7070312L11.482422 2 z M 5 8L5 10.380859L13 19.380859L13 30L19 25.5L19 25L19 19.380859L27 10.380859L27 8L26 8L5 8 z M 7.3378906 10L24.662109 10L17.550781 18L14.449219 18L7.3378906 10 z M 15 20L17 20L17 24.5L15 26L15 20 z" fill="#5B5B5B" />
</svg>