<?xml version="1.0" encoding="utf-8"?>
<svg xmlns="http://www.w3.org/2000/svg" viewBox="0 0 26 26" width="208" height="208">
  <path d="M13 0.03125C7.796875 0.03125 3.410156 3.636719 2 8.5625C0.738281 9.324219 0 10.785156 0 12.5C0 14.984375 1.515625 17 4 17C4.554688 17 5 16.554688 5 16L5 9C5 8.539063 4.671875 8.179688 4.25 8.0625C5.710938 4.480469 9.082031 1.96875 13 1.96875C16.917969 1.96875 20.289063 4.480469 21.75 8.0625C21.328125 8.179688 21 8.539063 21 9L21 16C21 16.554688 21.445313 17 22 17C22.234375 17 22.441406 16.972656 22.65625 16.9375C22.332031 18.804688 21.550781 20.195313 20.75 21.15625C20.25 21.757813 19.742188 22.191406 19.34375 22.46875C19.144531 22.609375 18.992188 22.695313 18.875 22.75C18.816406 22.777344 18.769531 22.804688 18.75 22.8125L16.875 22.8125C16.515625 21.769531 15.367188 21 14 21C12.34375 21 11 22.121094 11 23.5C11 24.878906 12.34375 26 14 26C15.367188 26 16.515625 25.230469 16.875 24.1875L18.84375 24.1875C19.183594 24.1875 19.269531 24.097656 19.46875 24C19.667969 23.902344 19.90625 23.769531 20.15625 23.59375C20.65625 23.242188 21.261719 22.734375 21.84375 22.03125C22.898438 20.761719 23.878906 18.875 24.125 16.34375C25.304688 15.5625 26 14.152344 26 12.5C26 10.785156 25.261719 9.324219 24 8.5625C22.589844 3.636719 18.203125 0.03125 13 0.03125Z" fill="#5B5B5B" />
</svg>