<?xml version="1.0" encoding="utf-8"?>
<svg viewBox="0 0 800 500" preserveAspectRatio="none" xmlns="http://www.w3.org/2000/svg" xmlns:xlink="http://www.w3.org/1999/xlink" width="100%" id="blobSvg">
  <g transform="translate(372, -200)">
    <defs>
      <linearGradient id="gradient" x1="0%" y1="0%" x2="0%" y2="100%">
        <stop offset="0%" style="stop-color: rgb(77, 0, 179);"></stop>
        <stop offset="100%" style="stop-color: rgb(238, 75, 67);"></stop>
      </linearGradient>
    </defs>
    <path class="blob" d="M440,338.5Q391,427,297.5,440Q204,453,157,385Q110,317,108,249Q106,181,151.5,98.5Q197,16,290.5,49Q384,82,436.5,166Q489,250,440,338.5Z" fill="url(#gradient)"></path>
  </g>
  <g transform="translate(-396, -244)">
    <defs>
      <linearGradient id="gradient" x1="0%" y1="0%" x2="0%" y2="100%">
        <stop offset="0%" style="stop-color: rgb(77, 0, 179);"></stop>
        <stop offset="100%" style="stop-color: rgb(238, 75, 67);"></stop>
      </linearGradient>
    </defs>
    <path class="blob" d="M440,338.5Q391,427,297.5,440Q204,453,157,385Q110,317,108,249Q106,181,151.5,98.5Q197,16,290.5,49Q384,82,436.5,166Q489,250,440,338.5Z" fill="url(#gradient)"></path>
  </g>
</svg>