<?xml version="1.0" encoding="utf-8"?>
<svg xmlns="http://www.w3.org/2000/svg" viewBox="0 0 24 24" width="96" height="96">
  <path d="M10 2C8.6983906 2 7.5978609 2.8387486 7.1835938 4L3 4 A 1.0001 1.0001 0 1 0 3 6L7.1835938 6C7.5978609 7.1612514 8.6983906 8 10 8C11.654 8 13 6.654 13 5C13 3.346 11.654 2 10 2 z M 16 4 A 1.0001 1.0001 0 1 0 16 6L21 6 A 1.0001 1.0001 0 1 0 21 4L16 4 z M 15 9C13.698391 9 12.597861 9.8387486 12.183594 11L3 11 A 1.0001 1.0001 0 1 0 3 13L12.183594 13C12.597861 14.161251 13.698391 15 15 15C16.654 15 18 13.654 18 12C18 10.346 16.654 9 15 9 z M 21 11 A 1.0001 1.0001 0 1 0 21 13 A 1.0001 1.0001 0 1 0 21 11 z M 7 16C5.6983906 16 4.5978609 16.838749 4.1835938 18L3 18 A 1.0001 1.0001 0 1 0 3 20L4.1835938 20C4.5978609 21.161251 5.6983906 22 7 22C8.654 22 10 20.654 10 19C10 17.346 8.654 16 7 16 z M 13 18 A 1.0001 1.0001 0 1 0 13 20L21 20 A 1.0001 1.0001 0 1 0 21 18L13 18 z" fill="#5B5B5B" />
</svg>